<?xml version="1.0" encoding="UTF-8"?>
<svg width="26px" height="22px" viewBox="0 0 26 22" version="1.1" xmlns="http://www.w3.org/2000/svg" xmlns:xlink="http://www.w3.org/1999/xlink">
    <title>certificate3</title>
    <g id="Symbols" stroke="none" stroke-width="1" fill="none" fill-rule="evenodd">
        <g id="left_panel" transform="translate(-20.000000, -506.000000)" fill="#5E419D" fill-rule="nonzero">
            <g id="certificate3" transform="translate(20.000000, 506.000000)">
                <path d="M23.0576923,0 L2.09615385,0 C0.939054641,0.00138603214 0.00138602723,0.93905797 0,2.09616128 L0,17.1885225 C0.00138602723,18.3456258 0.939054641,19.2832977 2.09615385,19.2846837 L14.6730769,19.2846837 L14.6730769,21.380845 C14.6731131,21.5503808 14.775255,21.703207 14.9318871,21.7680806 C15.0885193,21.8329543 15.2688062,21.797104 15.3887038,21.6772422 L16.7692308,20.2967104 L18.1497577,21.6772422 C18.2696553,21.797104 18.4499423,21.8329543 18.6065744,21.7680806 C18.7632065,21.703207 18.8653484,21.5503808 18.8653846,21.380845 L18.8653846,19.2846837 L23.0576923,19.2846837 C24.2147915,19.2832977 25.1524601,18.3456258 25.1538462,17.1885225 L25.1538462,2.09616128 C25.1524601,0.93905797 24.2147915,0.00138603214 23.0576923,0 Z M13.5453462,8.20227908 C13.4805451,8.17238614 13.4339617,8.11328864 13.4200299,8.0432979 C13.4060982,7.97330716 13.4265006,7.9008759 13.4749154,7.84844705 C13.8500379,7.44074725 13.8500379,6.81356867 13.4749154,6.40586886 C13.4263492,6.35337838 13.4058982,6.28078278 13.4199227,6.21065965 C13.4339473,6.14053647 13.4807464,6.08139098 13.5457654,6.05161761 C14.047955,5.8179209 14.2876618,5.23868824 14.0974731,4.71845903 C14.0727206,4.65148027 14.0815349,4.57669904 14.121182,4.51731106 C14.1608292,4.45792304 14.2265152,4.42110929 14.2978654,4.41828874 C14.8514991,4.39502596 15.2950104,3.95151311 15.3182731,3.39787743 C15.3210486,3.3264204 15.3579201,3.26062767 15.4174206,3.22096055 C15.476921,3.18129344 15.5518339,3.17256301 15.6188615,3.19748441 C16.1391759,3.38654642 16.7177305,3.14693664 16.9520154,2.64535553 C16.9816649,2.58042518 17.0407032,2.53369261 17.1107059,2.51974183 C17.1807087,2.50579105 17.2531515,2.52632088 17.3054269,2.57492451 C17.7132643,2.95010489 18.3405819,2.95010489 18.7484192,2.57492451 C18.8008313,2.52635276 18.8733741,2.5058941 18.9434411,2.51992414 C19.013508,2.53395418 19.0725807,2.58076723 19.10225,2.64577476 C19.3360769,3.14759681 19.9148834,3.3872043 20.4349846,3.19748441 C20.5020122,3.17256301 20.5769251,3.18129344 20.6364256,3.22096055 C20.695926,3.26062767 20.7327975,3.3264204 20.7355731,3.39787743 C20.7590958,3.95227473 21.2036437,4.39609517 21.7580769,4.41870797 C21.8293972,4.4213911 21.8951066,4.45810788 21.9347725,4.51744102 C21.9744385,4.57677417 21.9832508,4.65152856 21.9584692,4.71845903 C21.7681236,5.2388029 22.008089,5.8182204 22.5105962,6.05161761 C22.5753972,6.08151054 22.6219806,6.14060804 22.6359124,6.21059878 C22.6498441,6.28058952 22.6294417,6.35302078 22.5810269,6.40544963 C22.2059044,6.81314943 22.2059044,7.44032801 22.5810269,7.84802782 C22.6295931,7.9005183 22.6500441,7.9731139 22.6360196,8.04323703 C22.621995,8.11336021 22.5751959,8.1725057 22.5101769,8.20227908 C22.0079873,8.43597578 21.7682805,9.01520844 21.9584692,9.53543765 C21.9832217,9.60241641 21.9744074,9.67719764 21.9347603,9.73658562 C21.8951131,9.79597364 21.8294271,9.83278739 21.7580769,9.83560794 C21.2028533,9.85788628 20.7578513,10.3028898 20.7355731,10.8581154 C20.7327975,10.9295724 20.695926,10.9953652 20.6364256,11.0350323 C20.5769251,11.0746994 20.5020122,11.0834298 20.4349846,11.0585084 C19.9146656,10.8692331 19.3359681,11.108902 19.1018308,11.6106373 C19.0732749,11.6761849 19.0140667,11.7233004 18.9437808,11.736407 C18.8736,11.7510785 18.8006755,11.7305782 18.7484192,11.6814876 C18.3405038,11.3065076 17.7133424,11.3065076 17.3054269,11.6814876 C17.2531346,11.7305145 17.1802437,11.7510053 17.1100654,11.736407 C17.039685,11.7232895 16.9803531,11.6762005 16.9515962,11.6106373 C16.7179175,11.1086605 16.1389672,10.8689936 15.6188615,11.0589277 C15.5518339,11.083849 15.476921,11.0751186 15.4174206,11.0354515 C15.3579201,10.9957844 15.3210486,10.9299917 15.3182731,10.8585346 C15.2960236,10.3031553 14.8511282,9.85789349 14.2957692,9.83518871 C14.2244489,9.83250558 14.1587395,9.7957888 14.1190736,9.73645566 C14.0794077,9.67712251 14.0705954,9.60236812 14.0953769,9.53543765 C14.2860121,9.01564449 14.0470416,8.43643039 13.5453462,8.20227908 Z M18.1501769,16.0532415 L18.0269231,16.1764958 L18.0269231,12.2357126 C18.0830318,12.2355621 18.137112,12.2566849 18.1782654,12.2948244 C18.3725481,12.4769315 18.6288634,12.5782589 18.89515,12.5782254 C18.9663703,12.578085 19.0374104,12.5710651 19.1072808,12.5572637 C19.4408759,12.4921392 19.7221757,12.2692864 19.8618962,11.9594385 C19.9110112,11.8537413 20.0330067,11.8034112 20.1423615,11.8437304 C20.2699362,11.8889243 20.404984,11.9092741 20.5402115,11.9036807 L20.5402115,16.1764958 L19.5789154,15.2151962 C19.4152058,15.0515356 19.1498327,15.0515356 18.9861231,15.2151962 L18.1501769,16.0532415 Z M18.0269231,20.3688184 L17.0656269,19.4075188 C16.9019173,19.2438581 16.6365442,19.2438581 16.4728346,19.4075188 L15.5115385,20.3688184 L15.5115385,11.9028422 C15.6467676,11.9084668 15.7818214,11.8881162 15.9093885,11.842892 C16.0185197,11.8023389 16.1404841,11.852549 16.1894346,11.9581809 C16.3295445,12.268827 16.6119382,12.4919596 16.9465654,12.5564253 C17.0261921,12.5721796 17.1073185,12.579069 17.1884615,12.5769677 L17.1884615,17.1885225 C17.1884977,17.3580583 17.2906396,17.5108844 17.4472717,17.5757581 C17.6039039,17.6406317 17.7841909,17.6047815 17.9040885,17.4849197 L18.0269231,17.3620846 L18.0269231,20.3688184 Z M24.3153846,17.1885225 C24.3153846,17.8831292 23.7522966,18.4462192 23.0576923,18.4462192 L18.8653846,18.4462192 L18.8653846,16.5236201 L19.2846154,16.1043879 L20.6651423,17.4849197 C20.7850399,17.6047815 20.9653269,17.6406317 21.121959,17.5757581 C21.2785912,17.5108844 21.3807331,17.3580583 21.3807692,17.1885225 L21.3807692,11.4479752 C21.4977776,11.2836833 21.5646204,11.0889792 21.5731962,10.8874617 C21.5783151,10.7711724 21.6715437,10.6781255 21.7878423,10.673234 C22.1277122,10.6601271 22.440719,10.4849491 22.6296338,10.202115 C22.8185487,9.91928096 22.8604905,9.5630477 22.7424308,9.24407123 C22.7024084,9.13495451 22.7527165,9.01337594 22.8581385,8.96444332 C23.1673516,8.82238634 23.3897157,8.54069719 23.4560996,8.20695062 C23.5224836,7.87320406 23.4248391,7.52786308 23.1935231,7.27829118 C23.1147253,7.19262002 23.1147253,7.06085742 23.1935231,6.97518626 C23.4248443,6.72569268 23.5224963,6.38040423 23.4561069,6.04671372 C23.3897176,5.71302317 23.1673399,5.43140662 22.8581385,5.28945337 C22.7523981,5.24082209 22.7018302,5.11905709 22.7420115,5.00982545 C22.8600712,4.69084898 22.8181295,4.33461572 22.6292146,4.05178167 C22.4402997,3.76894762 22.127293,3.59376956 21.7874231,3.58066269 C21.6711245,3.57577111 21.5778959,3.48272425 21.5727769,3.36643501 C21.5600674,3.02644386 21.3850935,2.71316722 21.1022755,2.52404036 C20.8194576,2.33491349 20.4631005,2.29287686 20.1440385,2.4110047 C20.0348966,2.45221602 19.9124869,2.40182261 19.8639923,2.29571583 C19.7219358,1.98650161 19.4402477,1.76413673 19.1065023,1.69775253 C18.7727569,1.63136834 18.4274172,1.72901315 18.1778462,1.96033003 C18.0923143,2.03907155 17.9606934,2.03907155 17.8751615,1.96033003 C17.6256688,1.72900798 17.2803816,1.63135567 16.9466923,1.69774523 C16.6130029,1.76413479 16.3313874,1.98651329 16.1894346,2.29571583 C16.1407724,2.40188484 16.0183356,2.45239704 15.9089692,2.41142393 C15.5899072,2.2932961 15.2335501,2.33533272 14.9507322,2.52445959 C14.6679142,2.71358645 14.4929403,3.02686309 14.4802308,3.36685424 C14.4751118,3.48314348 14.3818832,3.57619034 14.2655846,3.58108192 C13.9257147,3.59418879 13.6127079,3.76936686 13.4237931,4.0522009 C13.2348782,4.33503496 13.1929365,4.69126822 13.3109962,5.01024468 C13.3510186,5.11936141 13.3007104,5.24093998 13.1952885,5.2898726 C12.8860753,5.43192957 12.6637113,5.71361873 12.5973273,6.04736529 C12.5309433,6.38111185 12.6285878,6.72645283 12.8599038,6.97602473 C12.9387016,7.06169589 12.9387016,7.19345849 12.8599038,7.27912965 C12.6285826,7.52862323 12.5309307,7.87391168 12.59732,8.20760219 C12.6637093,8.54129275 12.886087,8.82290929 13.1952885,8.96486255 C13.3010288,9.01349382 13.3515967,9.13525883 13.3114154,9.24449046 C13.1933557,9.56346693 13.2352974,9.91970019 13.4242123,10.2025343 C13.6131272,10.4853683 13.9261339,10.6605463 14.2660038,10.6736532 C14.3823024,10.6785448 14.4755311,10.7715917 14.48065,10.8878809 C14.489306,11.0892542 14.556145,11.2838017 14.6730769,11.4479752 L14.6730769,18.4462192 L2.09615385,18.4462192 C1.40154956,18.4462192 0.838461538,17.8831292 0.838461538,17.1885225 L0.838461538,2.09616128 C0.838461538,1.40155453 1.40154956,0.838464511 2.09615385,0.838464511 L23.0576923,0.838464511 C23.7522966,0.838464511 24.3153846,1.40155453 24.3153846,2.09616128 L24.3153846,17.1885225 Z" id="Shape"></path>
                <path d="M4.63948718,15.0923077 C3.93562151,15.0923077 3.36502564,14.5292196 3.36502564,13.8346154 L3.36502564,5.45 C3.36502564,4.75539574 3.93562151,4.19230769 4.63948718,4.19230769 L12.2862564,4.19230769 C12.5208783,4.19230769 12.7110769,4.00461168 12.7110769,3.77307692 C12.7110769,3.54154216 12.5208783,3.35384615 12.2862564,3.35384615 L4.63948718,3.35384615 C3.46695998,3.35523218 2.51678912,4.29290077 2.51538462,5.45 L2.51538462,13.8346154 C2.51678912,14.9917146 3.46695998,15.9293832 4.63948718,15.9307692 L12.7110769,15.9307692 C12.9456988,15.9307692 13.1358974,15.7430732 13.1358974,15.5115385 C13.1358974,15.2800037 12.9456988,15.0923077 12.7110769,15.0923077 L4.63948718,15.0923077 Z" id="Shape"></path>
                <path d="M4.89102564,10.0615385 L10.7602564,10.0615385 C10.9917911,10.0615385 11.1794872,9.87384243 11.1794872,9.64230769 C11.1794872,9.41077295 10.9917911,9.22307692 10.7602564,9.22307692 L4.89102564,9.22307692 C4.6594909,9.22307692 4.47179487,9.41077295 4.47179487,9.64230769 C4.47179487,9.87384243 4.6594909,10.0615385 4.89102564,10.0615385 Z" id="Shape"></path>
                <path d="M4.89102564,8.38461538 L10.7602564,8.38461538 C10.9917911,8.38461538 11.1794872,8.19691936 11.1794872,7.96538462 C11.1794872,7.73384988 10.9917911,7.54615385 10.7602564,7.54615385 L4.89102564,7.54615385 C4.6594909,7.54615385 4.47179487,7.73384988 4.47179487,7.96538462 C4.47179487,8.19691936 4.6594909,8.38461538 4.89102564,8.38461538 Z" id="Shape"></path>
                <path d="M4.89102564,6.70769231 L10.7602564,6.70769231 C10.9917911,6.70769231 11.1794872,6.51999628 11.1794872,6.28846154 C11.1794872,6.0569268 10.9917911,5.86923077 10.7602564,5.86923077 L4.89102564,5.86923077 C4.6594909,5.86923077 4.47179487,6.0569268 4.47179487,6.28846154 C4.47179487,6.51999628 4.6594909,6.70769231 4.89102564,6.70769231 Z" id="Shape"></path>
                <path d="M4.78563912,14.0022668 C4.85104385,14.1551357 4.99905307,14.2539228 5.16256499,14.2538462 C5.21915381,14.2541021 5.2751664,14.2422462 5.32698195,14.2190407 C5.70752504,14.0748258 6.05725877,13.8571582 6.35705419,13.5779434 C6.46834277,13.4646531 6.56565746,13.3379282 6.64683908,13.2005807 C6.80380347,13.3805844 6.98827752,13.5335043 7.19311442,13.653416 C7.47879147,13.8439526 7.8343551,13.8903139 8.15783092,13.7792035 C8.28182695,13.7301002 8.39398661,13.6543031 8.48666483,13.5569788 C8.6726683,13.6755425 8.87758284,13.7599764 9.09213028,13.8064575 L9.40287833,13.8815108 C10.0371583,14.0710264 10.6961961,14.1601149 11.3569739,14.1456647 C11.503458,14.1348792 11.6331742,14.0451962 11.6972595,13.9103984 C11.7613449,13.7756006 11.7500633,13.616167 11.6676645,13.4921547 C11.5852657,13.3681424 11.4442679,13.2983918 11.2977838,13.3091773 C10.7211827,13.3168589 10.1468015,13.2348543 9.59442408,13.065988 L9.27668831,12.9892576 C8.89318576,12.8991098 8.79453559,12.7414561 8.75384239,12.6303437 C8.68221217,12.4352565 8.48103322,12.3234006 8.28148348,12.3677111 C8.08193371,12.4120216 7.94453876,12.5990587 7.9588864,12.8068656 C7.96347992,12.8820431 7.92857597,12.9540504 7.86722394,12.9959663 C7.7711889,13.0084233 7.67412132,12.9829192 7.59593596,12.9246866 C7.26351735,12.7135798 7.01353982,12.3909821 6.88894305,12.0123075 C6.81821917,11.8173259 6.61810857,11.7046537 6.41867935,11.7475257 C6.21925013,11.7903976 6.08073447,11.9758655 6.09316497,12.1833786 C6.1000854,12.4833206 5.98490907,12.7727902 5.77501816,12.9829682 C5.54677857,13.1865749 5.28331856,13.3449796 4.99814803,13.4500594 C4.89814808,13.4945014 4.8195659,13.5776664 4.77970732,13.6812395 C4.73984875,13.7848127 4.74198263,13.9002994 4.78563912,14.0022668 Z" id="Shape"></path>
                <path d="M18.1666667,10.3410256 C20.0189448,10.3410256 21.5205128,8.83945757 21.5205128,6.98717949 C21.5205128,5.1349014 20.0189448,3.63333333 18.1666667,3.63333333 C16.3143886,3.63333333 14.8128205,5.1349014 14.8128205,6.98717949 C14.8148999,8.83859559 16.3152506,10.3389463 18.1666667,10.3410256 Z M18.1666667,4.47179487 C19.5558752,4.47179487 20.6820513,5.59797092 20.6820513,6.98717949 C20.6820513,8.37638805 19.5558752,9.5025641 18.1666667,9.5025641 C16.7774581,9.5025641 15.6512821,8.37638805 15.6512821,6.98717949 C15.6526686,5.59854565 16.7780328,4.47318144 18.1666667,4.47179487 Z" id="Shape"></path>
            </g>
        </g>
    </g>
</svg>