<svg xmlns="http://www.w3.org/2000/svg" width="16" height="17.262" viewBox="0 0 16 17.262">
  <g id="logout" transform="translate(-17.219)">
    <g id="Group_6307" data-name="Group 6307" transform="translate(17.219)">
      <path id="Path_10118" data-name="Path 10118" d="M24.927,16.272h-4.5a2.219,2.219,0,0,1-2.216-2.216V3.205A2.219,2.219,0,0,1,20.424.989H25A.495.495,0,0,0,25,0H20.424a3.209,3.209,0,0,0-3.205,3.205V14.056a3.209,3.209,0,0,0,3.205,3.205h4.5a.495.495,0,1,0,0-.989Z" transform="translate(-17.219)" fill="#5f449b"/>
      <path id="Path_10119" data-name="Path 10119" d="M132.59,139.614l-3.143-3.143a.495.495,0,1,0-.7.7l2.3,2.3H121.014a.495.495,0,1,0,0,.989h10.034l-2.3,2.3a.5.5,0,0,0,.348.846.483.483,0,0,0,.348-.147l3.143-3.143A.494.494,0,0,0,132.59,139.614Z" transform="translate(-116.735 -131.331)" fill="#5f449b"/>
    </g>
  </g>
</svg>
