<svg xmlns="http://www.w3.org/2000/svg" xmlns:xlink="http://www.w3.org/1999/xlink" width="20" height="18.742" viewBox="0 0 20 18.742">
  <defs>
    <clipPath id="clip-path">
      <rect width="20" height="18.742" fill="none"/>
    </clipPath>
  </defs>
  <g id="history" clip-path="url(#clip-path)">
    <g id="history-2" data-name="history" transform="translate(-103.986 -120.023)">
      <path id="Path_10160" data-name="Path 10160" d="M122.9,196.263a.654.654,0,0,0,.129.013.625.625,0,0,0,.611-.5,8.034,8.034,0,0,1,.312-1.09.625.625,0,1,0-1.175-.426,9.351,9.351,0,0,0-.358,1.26A.625.625,0,0,0,122.9,196.263Zm0,0" transform="translate(-16.977 -68.055)" fill="#5f449b"/>
      <path id="Path_10161" data-name="Path 10161" d="M141.852,156.6a.624.624,0,0,0,.507-.258,8.266,8.266,0,0,1,.727-.87.625.625,0,0,0-.9-.866,9.323,9.323,0,0,0-.837,1,.625.625,0,0,0,.5.992Zm0,0" transform="translate(-34.333 -31.702)" fill="#5f449b"/>
      <path id="Path_10162" data-name="Path 10162" d="M176.323,130.023a.621.621,0,0,0,.312-.085,7.838,7.838,0,0,1,1.014-.5.625.625,0,1,0-.471-1.159,9.429,9.429,0,0,0-1.173.577.625.625,0,0,0,.312,1.166Zm0,0" transform="translate(-66.108 -7.568)" fill="#5f449b"/>
      <path id="Path_10163" data-name="Path 10163" d="M123.616,126.824c0-.016,0-.032,0-.048-.011-.04-.027-.079-.038-.119s-.03-.089-.045-.135q-.114-.351-.254-.694c-.017-.041-.033-.083-.051-.125s-.041-.1-.063-.156a.516.516,0,0,0-.036-.049,9.37,9.37,0,0,0-1.339-2.125c-.007-.01-.009-.022-.017-.032a9.468,9.468,0,0,0-.91-.934.668.668,0,0,0-.063-.036A9.382,9.382,0,0,0,118.745,121a.453.453,0,0,0-.053-.041c-.12-.058-.244-.109-.367-.162-.035-.016-.07-.032-.107-.047-.244-.1-.49-.2-.741-.277h-.02a9.341,9.341,0,0,0-2.493-.427c-.019,0-.036-.013-.055-.013h-.193c-.036,0-.07-.006-.106-.006-.01,0-.018.005-.028.006a9.439,9.439,0,0,0-.979.048.625.625,0,0,0,.063,1.246.613.613,0,0,0,.067,0,8.42,8.42,0,0,1,.961-.042,8.075,8.075,0,0,1,3.049.625l.068.03a8.148,8.148,0,0,1,2.36,1.556c.169.159.329.325.482.5a8.125,8.125,0,0,1,1.424,2.213c.014.031.026.063.039.094q.125.3.224.611c.013.039.026.077.038.116a8.1,8.1,0,0,1,.355,2.372c0,.25-.016.5-.038.74-.005.063-.013.125-.019.187a8.114,8.114,0,0,1-2.884,5.321l-.033.028a8.112,8.112,0,0,1-2.713,1.472l-.085.024c-.206.063-.415.116-.625.162l-.155.033a8.105,8.105,0,0,1-9.5-6.236l1.4.705a.625.625,0,1,0,.558-1.119l-2.5-1.25a.616.616,0,0,0-.273-.063l-.027-.006a.557.557,0,0,0-.054.015.605.605,0,0,0-.187.051.614.614,0,0,0-.3.277l-1.25,2.5a.625.625,0,1,0,1.119.559l.427-.853a9.177,9.177,0,0,0,.727,1.812.5.5,0,0,0,.016.051,9.3,9.3,0,0,0,.695,1.107c.016.021.04.03.058.049a9.484,9.484,0,0,0,1.687,1.739.59.59,0,0,0,.072.084,9.245,9.245,0,0,0,1.082.733.62.62,0,0,0,.148.063,9.376,9.376,0,0,0,2.216.887.565.565,0,0,0,.056.027,9.357,9.357,0,0,0,1.288.224h.062a9.035,9.035,0,0,0,.908.047,9.354,9.354,0,0,0,1.519-.135h.008a.57.57,0,0,0,.109-.01c.054-.009.107-.024.162-.034.07-.013.138-.029.206-.044q.355-.077.7-.181c.036-.011.073-.02.109-.031s.063-.017.091-.026.024-.016.037-.021a9.34,9.34,0,0,0,2.278-1.112c.009-.005.018-.007.027-.013.24-.162.469-.34.694-.524l.043-.036c.1-.081.2-.16.29-.244a.539.539,0,0,0,.046-.063,9.435,9.435,0,0,0,1.569-1.86.655.655,0,0,0,.063-.077,9.4,9.4,0,0,0,.614-1.154.412.412,0,0,0,.009-.042,9.277,9.277,0,0,0,.687-2.4.575.575,0,0,0,.02-.063c.011-.076.016-.153.024-.229s.016-.15.023-.225c.026-.283.043-.566.043-.85v-.048A9.34,9.34,0,0,0,123.616,126.824Zm0,0" fill="#5f449b"/>
      <path id="Path_10164" data-name="Path 10164" d="M232.625,168a.625.625,0,0,0-.625.625v5a.625.625,0,0,0,.183.442l2.5,2.5a.625.625,0,0,0,.884-.884l-2.316-2.316v-4.74A.625.625,0,0,0,232.625,168Zm0,0" transform="translate(-118.015 -44.229)" fill="#5f449b"/>
    </g>
  </g>
</svg>
