<svg xmlns="http://www.w3.org/2000/svg" width="21.908" height="19.255" viewBox="0 0 21.908 19.255">
  <path id="portfolio_1_" data-name="portfolio (1)" d="M21.27,2.567H15.447V1.925A1.928,1.928,0,0,0,13.521,0H8.387A1.928,1.928,0,0,0,6.461,1.925v.642H.642A.643.643,0,0,0,0,3.209v14.12a1.928,1.928,0,0,0,1.925,1.925H19.982a1.928,1.928,0,0,0,1.925-1.925V3.22A.623.623,0,0,0,21.27,2.567ZM7.745,1.925a.643.643,0,0,1,.642-.642h5.135a.643.643,0,0,1,.642.642v.642H7.745ZM20.375,3.851,18.382,9.83a.641.641,0,0,1-.609.439h-3.61V9.627a.642.642,0,0,0-.642-.642H8.387a.642.642,0,0,0-.642.642v.642H4.134a.641.641,0,0,1-.609-.439L1.532,3.851Zm-7.5,6.418v1.284H9.028V10.269Zm7.745,7.06a.643.643,0,0,1-.642.642H1.925a.643.643,0,0,1-.642-.642V7.164l1.024,3.072a1.923,1.923,0,0,0,1.827,1.317h3.61v.642a.642.642,0,0,0,.642.642h5.135a.642.642,0,0,0,.642-.642v-.642h3.61A1.923,1.923,0,0,0,19.6,10.236l1.024-3.072Zm0,0" fill="#5f449b"/>
</svg>
