<svg xmlns="http://www.w3.org/2000/svg" width="17" height="18.243" viewBox="0 0 17 18.243">
  <g id="user4" transform="translate(-17.44)">
    <g id="Group_6365" data-name="Group 6365" transform="translate(17.44 10.275)">
      <g id="Group_6364" data-name="Group 6364" transform="translate(0)">
        <path id="Path_10165" data-name="Path 10165" d="M25.94,288.389c-5.481,0-8.5,2.593-8.5,7.3a.666.666,0,0,0,.666.666H33.774a.666.666,0,0,0,.666-.666C34.44,290.982,31.421,288.389,25.94,288.389ZM18.8,295.025c.262-3.52,2.662-5.3,7.144-5.3s6.882,1.784,7.144,5.3Z" transform="translate(-17.44 -288.389)" fill="#5f449b"/>
      </g>
    </g>
    <g id="Group_6367" data-name="Group 6367" transform="translate(21.524)">
      <g id="Group_6366" data-name="Group 6366" transform="translate(0)">
        <path id="Path_10166" data-name="Path 10166" d="M136.465,0a4.363,4.363,0,0,0-4.416,4.505,4.431,4.431,0,1,0,8.833,0A4.364,4.364,0,0,0,136.465,0Zm0,7.967a3.294,3.294,0,0,1-3.085-3.462,3.027,3.027,0,0,1,3.085-3.174,3.061,3.061,0,0,1,3.085,3.174A3.294,3.294,0,0,1,136.465,7.967Z" transform="translate(-132.049)" fill="#5f449b"/>
      </g>
    </g>
  </g>
</svg>
