<?xml version="1.0" encoding="UTF-8"?>
<svg width="20px" height="27px" viewBox="0 0 20 27" version="1.1" xmlns="http://www.w3.org/2000/svg" xmlns:xlink="http://www.w3.org/1999/xlink">
    <title>send-money</title>
    <g id="Page-1" stroke="none" stroke-width="1" fill="none" fill-rule="evenodd">
        <g id="refer-&amp;-earn" transform="translate(-132.000000, -575.000000)" fill="#5F449B" fill-rule="nonzero">
            <g id="Group-13" transform="translate(112.000000, 80.000000)">
                <g id="send-money" transform="translate(20.000000, 495.000000)">
                    <path d="M4.09698065,7.26922905 C3.95670124,7.26922905 3.82399853,7.20599903 3.73624341,7.09727664 C3.64848829,6.98855424 3.61517544,6.84612736 3.64568621,6.71010535 L4.95449786,0.896729921 C4.99136119,0.73336939 5.11478885,0.602880515 5.27662072,0.556178636 C5.43845259,0.509476756 5.61304462,0.553962298 5.73227291,0.672277488 L6.57245487,1.51038632 C8.3539411,0.120618182 10.4913779,-0.321398119 12.7819427,0.231409281 C13.8974353,0.502342211 14.9552949,0.968896131 15.9057554,1.60912243 C16.0710851,1.72858118 16.1377975,1.94173612 16.0697993,2.13326487 C16.0018011,2.32479362 15.8152423,2.44920719 15.6110561,2.4391946 C12.3058011,2.2773133 10.2434837,3.46673899 9.395212,4.31575471 L10.2741094,5.18830637 C10.393529,5.30680581 10.4384437,5.48054457 10.39128,5.64154514 C10.3441164,5.80254571 10.2123727,5.92521147 10.0475954,5.96154787 L4.19752512,7.25832037 C4.16452358,7.26566343 4.1307997,7.26932174 4.09698065,7.26922905 L4.09698065,7.26922905 Z M5.67159952,1.91221932 L4.70660374,6.20436982 L9.02712678,5.24628513 L8.44003953,4.66247919 C8.27838459,4.50203639 8.25898526,4.24832988 8.39439003,4.06547016 C8.56369767,3.8358513 9.22821573,3.04251815 10.691889,2.37490132 C11.6969252,1.92492242 12.771574,1.6477368 13.8700188,1.555162 C13.4374173,1.37333696 12.9906138,1.22685241 12.5340486,1.11716402 C10.385055,0.606262066 8.47182083,1.06377764 6.84750756,2.47650766 C6.66430225,2.63544299 6.38846036,2.62615807 6.21650433,2.45526792 L5.67159952,1.91221932 Z" id="Shape"></path>
                    <path d="M8.82954436,27 C8.19552382,26.9980487 7.5640007,26.9209773 6.94835766,26.7704189 C5.83302292,26.4995306 4.77531298,26.0330535 3.82498687,25.3929326 C3.65968055,25.2734935 3.59297767,25.0603737 3.66096622,24.8688765 C3.72895477,24.6773793 3.91548716,24.5529862 4.11964449,24.5629971 C7.42385418,24.7248518 9.48645753,23.5356219 10.3346093,22.6867459 L9.45583625,21.8143379 C9.33643353,21.695858 9.29152517,21.5221478 9.33868213,21.3611738 C9.3858391,21.2001997 9.51756415,21.0775541 9.68231818,21.0412237 L15.5332941,19.741795 C15.6876651,19.7075822 15.8489274,19.75416 15.9607676,19.8652632 C16.0726079,19.9763665 16.1194947,20.1365661 16.085055,20.2899197 L14.7764285,26.1023381 C14.7395704,26.2656717 14.6161602,26.3961391 14.4543512,26.4428333 C14.2925422,26.4895275 14.1179749,26.4450493 13.9987635,26.3267536 L13.1587004,25.4887827 C11.873762,26.4897561 10.4062515,27 8.82954436,27 L8.82954436,27 Z M5.8604355,25.4451623 C6.29297584,25.6269574 6.73971606,25.7734178 7.19621672,25.8830882 C9.34490632,26.393906 11.2578698,25.9364658 12.8819533,24.5239683 C13.0651327,24.3650592 13.3409356,24.3743426 13.5128673,24.5452046 L14.0594283,25.0881638 L15.0242875,20.7967199 L10.7043757,21.7546469 L11.2913799,22.3383567 C11.453012,22.4987731 11.4724086,22.7524378 11.3370229,22.9352674 C11.1677393,23.1648485 10.5033152,23.958051 9.03984902,24.6255579 C8.03434248,25.0752553 6.95924651,25.3520105 5.8604355,25.4440144 L5.8604355,25.4451623 Z" id="Shape"></path>
                    <path d="M10.1249453,15.5769231 C9.60243999,15.5773198 9.13081881,15.2696435 8.92888684,14.7966378 C8.8255907,14.5567568 8.9399745,14.2801037 9.18437021,14.1787158 C9.42876592,14.0773278 9.71062587,14.1895986 9.81392203,14.4294795 C9.87874363,14.5831376 10.049607,14.6657867 10.2132443,14.6226375 C10.3768816,14.5794883 10.482544,14.4239227 10.4601862,14.2590674 C10.4378284,14.0942121 10.2943844,13.9711938 10.1249453,13.9715631 C9.48638743,13.9714543 8.94274096,13.5155382 8.84297905,12.8964727 C8.74321713,12.2774073 9.11697059,11.6790645 9.72432259,11.4855278 C10.3316746,11.291991 10.9922322,11.5607438 11.2819757,12.1192704 C11.3599512,12.2694982 11.3503497,12.4491455 11.2567877,12.5905408 C11.1632258,12.731936 10.9999178,12.8135981 10.8283802,12.8047655 C10.6568427,12.795933 10.5031363,12.6979477 10.4251607,12.5477199 C10.3500527,12.402217 10.1781959,12.332049 10.020109,12.38234 C9.86202223,12.4326311 9.76477456,12.5884074 9.79090474,12.7494914 C9.81703492,12.9105753 9.95876289,13.0290053 10.1249453,13.0286206 C10.8418836,13.0286206 11.4230769,13.5990774 11.4230769,14.3027716 C11.4230769,15.0064658 10.8418836,15.5769231 10.1249453,15.5769231 L10.1249453,15.5769231 Z" id="Path"></path>
                    <path d="M9.86538462,12.4615385 C9.57862138,12.4615385 9.34615385,12.2481839 9.34615385,11.9849978 L9.34615385,11.3803868 C9.34615385,11.1172007 9.57862138,10.9038462 9.86538462,10.9038462 C10.1521479,10.9038462 10.3846154,11.1172007 10.3846154,11.3803868 L10.3846154,11.9849978 C10.3846154,12.2481839 10.1521479,12.4615385 9.86538462,12.4615385 Z" id="Path"></path>
                    <path d="M9.86538462,16.0961538 C9.57862138,16.0961538 9.34615385,15.8827993 9.34615385,15.6196132 L9.34615385,15.0150022 C9.34615385,14.7518161 9.57862138,14.5384615 9.86538462,14.5384615 C10.1521479,14.5384615 10.3846154,14.7518161 10.3846154,15.0150022 L10.3846154,15.6196132 C10.3846154,15.8827993 10.1521479,16.0961538 9.86538462,16.0961538 Z" id="Path"></path>
                    <path d="M19.2725535,19.2115385 L0.458215728,19.2115385 C0.205150169,19.2115385 0,19.002408 0,18.7444325 L0,8.25556753 C0,7.99759201 0.205150169,7.78846154 0.458215728,7.78846154 L19.2725535,7.78846154 C19.5256191,7.78846154 19.7307692,7.99759201 19.7307692,8.25556753 L19.7307692,18.7444325 C19.7307692,19.002408 19.5256191,19.2115385 19.2725535,19.2115385 Z M0.916431455,18.2773265 L18.8143378,18.2773265 L18.8143378,8.72267351 L0.916431455,8.72267351 L0.916431455,18.2773265 Z" id="Shape"></path>
                    <path d="M15.8981985,17.1346154 L3.83257074,17.1346154 C3.57418912,17.1346154 3.36472942,16.9283748 3.36472942,16.6739641 C3.36376226,15.9462016 2.76465572,15.35656 2.02553363,15.3559256 C1.767152,15.3559256 1.55769231,15.149685 1.55769231,14.8952743 L1.55769231,11.5854949 C1.55769231,11.3310842 1.767152,11.1248436 2.02553363,11.1248436 C2.76465572,11.1242092 3.36376226,10.5345676 3.36472942,9.80680513 C3.36472942,9.55239445 3.57418912,9.34615385 3.83257074,9.34615385 L15.8981985,9.34615385 C16.1565801,9.34615385 16.3660398,9.55239445 16.3660398,9.80680513 C16.367007,10.5345676 16.9661135,11.1242092 17.7052356,11.1248436 C17.9636172,11.1248436 18.1730769,11.3310842 18.1730769,11.5854949 L18.1730769,14.8952743 C18.1730769,15.149685 17.9636172,15.3559256 17.7052356,15.3559256 C16.9661135,15.35656 16.367007,15.9462016 16.3660398,16.6739641 C16.3660398,16.9283748 16.1565801,17.1346154 15.8981985,17.1346154 L15.8981985,17.1346154 Z M4.25128873,16.2133128 L15.4794805,16.2133128 C15.6666088,15.3448012 16.3558492,14.6663792 17.2379791,14.4824156 L17.2379791,11.9983536 C16.3558492,11.81439 15.6666088,11.135968 15.4794805,10.2674564 L4.25128873,10.2674564 C4.0641604,11.135968 3.37492006,11.81439 2.49279015,11.9983536 L2.49279015,14.4824156 C3.37492006,14.6663792 4.0641604,15.3448012 4.25128873,16.2133128 L4.25128873,16.2133128 Z" id="Shape"></path>
                </g>
            </g>
        </g>
    </g>
</svg>