<svg width="38" height="26" viewBox="0 0 38 26" fill="none" xmlns="http://www.w3.org/2000/svg">
<g id="Group 26259">
<g id="Group 26273">
<path id="Intersection 1" d="M12.8814 25.8437H12.7065L12.7065 0.634949H37.95V0.810251C37.9441 7.45387 35.2998 13.8231 30.5988 18.5176C25.8978 23.2121 19.525 25.847 12.8814 25.8437Z" fill="#D1F4EF"/>
</g>
<g id="0-percent">
<path id="Path 24798" d="M11.659 2.11719C12.4596 2.11672 13.2317 2.41397 13.8253 2.95116L13.8309 2.95677C13.9816 3.09577 14.1638 3.19613 14.3618 3.24922C14.5598 3.3023 14.7678 3.30654 14.9678 3.26156H14.9762C15.759 3.09386 16.5761 3.22269 17.2693 3.62309C17.9624 4.02348 18.4823 4.66693 18.7281 5.42876V5.4353C18.7893 5.63089 18.897 5.80875 19.0419 5.95366C19.1868 6.09857 19.3646 6.20622 19.5602 6.2674H19.5677C20.3296 6.51343 20.9729 7.03352 21.3732 7.72689C21.7734 8.42025 21.902 9.23751 21.734 10.0203V10.0278C21.6891 10.2278 21.6934 10.4357 21.7464 10.6337C21.7995 10.8317 21.8998 11.0139 22.0388 11.1646L22.0444 11.1712C22.581 11.7651 22.8781 12.537 22.8781 13.3375C22.8781 14.1379 22.581 14.9098 22.0444 15.5037L22.0388 15.5093C21.8998 15.6601 21.7995 15.8422 21.7464 16.0403C21.6934 16.2383 21.6891 16.4462 21.734 16.6462V16.6546C21.9017 17.4374 21.7729 18.2545 21.3725 18.9477C20.9721 19.6409 20.3286 20.1607 19.5668 20.4066H19.5602C19.3646 20.4677 19.1868 20.5754 19.0419 20.7203C18.897 20.8652 18.7893 21.0431 18.7281 21.2387V21.2461C18.4825 22.0082 17.9624 22.6519 17.269 23.0522C16.5755 23.4525 15.7581 23.5808 14.9753 23.4124H14.9678C14.7678 23.3675 14.5598 23.3718 14.3618 23.4249C14.1638 23.478 13.9816 23.5783 13.8309 23.7172L13.8253 23.7228C13.2314 24.2594 12.4595 24.5565 11.659 24.5565C10.8586 24.5565 10.0867 24.2594 9.49276 23.7228L9.48715 23.7172C9.33645 23.5782 9.15427 23.4778 8.95625 23.4248C8.75823 23.3717 8.55028 23.3674 8.35026 23.4124H8.34184C7.5591 23.5801 6.74197 23.4513 6.04879 23.0509C5.35562 22.6505 4.83574 22.007 4.58991 21.2452V21.2377C4.52873 21.0421 4.42108 20.8643 4.27617 20.7194C4.13126 20.5745 3.9534 20.4668 3.75781 20.4056H3.75033C2.98849 20.1596 2.3451 19.6395 1.94487 18.9461C1.54464 18.2528 1.41607 17.4355 1.58407 16.6528V16.6453C1.62889 16.4454 1.62457 16.2376 1.57149 16.0398C1.5184 15.8419 1.41813 15.6599 1.27927 15.5093L1.27367 15.5028C0.737036 14.9089 0.439941 14.1369 0.439941 13.3365C0.439941 12.5361 0.737036 11.7642 1.27367 11.1703L1.27927 11.1646C1.41821 11.0139 1.51852 10.8317 1.57161 10.6337C1.62469 10.4357 1.62897 10.2278 1.58407 10.0278V10.0193C1.41632 9.23671 1.54502 8.41968 1.94523 7.72652C2.34544 7.03337 2.98868 6.51342 3.75033 6.2674H3.75781C3.95344 6.20629 4.13133 6.09867 4.27626 5.95375C4.42118 5.80883 4.5288 5.63093 4.58991 5.4353V5.42783C4.83557 4.66574 5.3556 4.02209 6.04907 3.6218C6.74254 3.22151 7.55999 3.09312 8.34278 3.26156H8.35026C8.55028 3.30654 8.75823 3.3023 8.95625 3.24922C9.15427 3.19613 9.33645 3.09577 9.48715 2.95677L9.49369 2.95116C10.0872 2.41442 10.8588 2.11722 11.659 2.11719ZM12.7482 4.13854C12.4492 3.86929 12.061 3.72031 11.6586 3.72031C11.2561 3.72031 10.868 3.86929 10.5689 4.13854C10.2282 4.45158 9.81695 4.67763 9.37009 4.79745C8.92323 4.91726 8.45403 4.92728 8.00246 4.82666C7.60883 4.74271 7.19806 4.80758 6.84945 5.00873C6.50084 5.20989 6.23911 5.53306 6.11481 5.91587C5.97622 6.35711 5.73305 6.75834 5.40601 7.08538C5.07898 7.41241 4.67775 7.65558 4.2365 7.79417C3.85451 7.91939 3.53233 8.18145 3.33194 8.52993C3.13155 8.87841 3.06711 9.28869 3.15103 9.68182C3.25146 10.133 3.24143 10.6018 3.12179 11.0483C3.00215 11.4948 2.77644 11.9058 2.46385 12.2464C2.19435 12.5455 2.0452 12.9339 2.0452 13.3365C2.0452 13.7392 2.19435 14.1275 2.46385 14.4267C2.77673 14.7674 3.00261 15.1787 3.12226 15.6256C3.24191 16.0724 3.25178 16.5416 3.15103 16.9931C3.06739 17.3867 3.13251 17.7973 3.33383 18.1458C3.53515 18.4942 3.85839 18.7557 4.24118 18.8798C4.68239 19.0185 5.08358 19.2617 5.4106 19.5887C5.73763 19.9157 5.98082 20.3169 6.11948 20.7581C6.2443 21.1398 6.50582 21.4619 6.85375 21.6624C7.20168 21.863 7.61147 21.9278 8.00433 21.8445C8.45568 21.7438 8.92467 21.7537 9.37137 21.8734C9.81806 21.993 10.2292 22.2189 10.5698 22.5317C10.8687 22.8009 11.2568 22.9498 11.659 22.9498C12.0613 22.9498 12.4493 22.8009 12.7482 22.5317C13.089 22.2189 13.5003 21.993 13.9472 21.8734C14.394 21.7537 14.8632 21.7438 15.3147 21.8445C15.7081 21.9282 16.1187 21.8632 16.4671 21.6621C16.8155 21.4609 17.0771 21.1379 17.2014 20.7553C17.3399 20.3142 17.583 19.9131 17.9098 19.5861C18.2367 19.259 18.6377 19.0158 19.0787 18.877C19.461 18.7525 19.7837 18.491 19.9846 18.1428C20.1855 17.7947 20.2505 17.3844 20.167 16.9912C20.0664 16.5399 20.0764 16.0709 20.196 15.6242C20.3157 15.1775 20.5415 14.7664 20.8542 14.4257C21.1234 14.1266 21.2724 13.7385 21.2724 13.3361C21.2724 12.9336 21.1234 12.5455 20.8542 12.2464C20.5417 11.9058 20.316 11.4948 20.1964 11.0483C20.0767 10.6018 20.0667 10.133 20.167 9.68182C20.251 9.28819 20.1861 8.87742 19.9849 8.52881C19.7838 8.1802 19.4606 7.91848 19.0778 7.79417C18.6365 7.65557 18.2351 7.41241 17.9079 7.08539C17.5807 6.75836 17.3374 6.35714 17.1986 5.91587C17.0739 5.53399 16.8125 5.21169 16.4645 5.01096C16.1166 4.81023 15.7067 4.74525 15.3137 4.82853C14.8624 4.9292 14.3934 4.91928 13.9467 4.79963C13.5 4.67998 13.0888 4.45414 12.7482 4.14134V4.13854Z" fill="#333333"/>
<path id="Line 790" d="M12.7007 11.3597C12.4882 11.3597 12.2844 11.2752 12.1341 11.125C11.9838 10.9747 11.8994 10.7709 11.8994 10.5584V9.86375C11.8994 9.65124 11.9838 9.44744 12.1341 9.29718C12.2844 9.14692 12.4882 9.0625 12.7007 9.0625C12.9132 9.0625 13.117 9.14692 13.2672 9.29718C13.4175 9.44744 13.5019 9.65124 13.5019 9.86375V10.5584C13.5019 10.7709 13.4175 10.9747 13.2672 11.125C13.117 11.2752 12.9132 11.3597 12.7007 11.3597Z" fill="#333333"/>
<path id="Line 791" d="M15.479 17.6097C15.2665 17.6097 15.0627 17.5252 14.9124 17.375C14.7622 17.2247 14.6777 17.0209 14.6777 16.8084V16.1137C14.6777 15.9012 14.7622 15.6974 14.9124 15.5472C15.0627 15.3969 15.2665 15.3125 15.479 15.3125C15.6915 15.3125 15.8953 15.3969 16.0455 15.5472C16.1958 15.6974 16.2802 15.9012 16.2802 16.1137V16.8084C16.2802 17.0209 16.1958 17.2247 16.0455 17.375C15.8953 17.5252 15.6915 17.6097 15.479 17.6097Z" fill="#333333"/>
<path id="Line 792" d="M12.7004 17.6109C12.5985 17.6107 12.4976 17.591 12.4031 17.5529C12.3053 17.5139 12.2162 17.456 12.1409 17.3825C12.0655 17.3091 12.0053 17.2215 11.9638 17.1248C11.9223 17.028 11.9003 16.9241 11.899 16.8188C11.8977 16.7136 11.9171 16.6091 11.9562 16.5114L14.7348 9.56664C14.7738 9.4689 14.8317 9.3798 14.9052 9.30444C14.9787 9.22907 15.0663 9.16892 15.163 9.12742C15.2597 9.08592 15.3637 9.06388 15.4689 9.06256C15.5741 9.06124 15.6786 9.08067 15.7763 9.11974C15.9736 9.19874 16.1314 9.35284 16.215 9.54816C16.2986 9.74347 16.3013 9.96401 16.2223 10.1613L13.4446 17.1032C13.3857 17.2527 13.2833 17.381 13.1506 17.4716C13.0179 17.5621 12.861 17.6106 12.7004 17.6109Z" fill="#333333"/>
<path id="Path 24799" d="M8.88099 9.01074C9.46174 9.01148 10.0185 9.24251 10.4292 9.65316C10.8398 10.0638 11.0708 10.6206 11.0716 11.2013V15.4731C11.0716 16.054 10.8408 16.6112 10.43 17.022C10.0192 17.4328 9.46197 17.6636 8.88099 17.6636C8.30002 17.6636 7.74285 17.4328 7.33203 17.022C6.92122 16.6112 6.69043 16.054 6.69043 15.4731V11.1966C6.69241 10.6167 6.92397 10.0611 7.33449 9.6515C7.74501 9.24186 8.30105 9.01148 8.88099 9.01074ZM8.88099 16.0602C9.03696 16.0602 9.18655 15.9983 9.29683 15.888C9.40712 15.7777 9.46908 15.6281 9.46908 15.4721V11.1966C9.46303 11.0449 9.39847 10.9013 9.28893 10.796C9.17939 10.6908 9.03337 10.632 8.88146 10.632C8.72955 10.632 8.58354 10.6908 8.47401 10.796C8.36447 10.9013 8.29991 11.0449 8.29386 11.1966V15.4684C8.29361 15.5457 8.30861 15.6223 8.33799 15.6938C8.36738 15.7653 8.41057 15.8303 8.46511 15.8851C8.51964 15.9399 8.58444 15.9834 8.6558 16.0131C8.72716 16.0429 8.80369 16.0582 8.88099 16.0583V16.0602Z" fill="#333333"/>
</g>
</g>
</svg>
