<svg width="38" height="28" viewBox="0 0 38 28" fill="none" xmlns="http://www.w3.org/2000/svg">
<g id="Group 26260">
<path id="Rectangle 10303" d="M35.3665 3.60547H13.6999C12.7794 3.60547 12.0332 4.5009 12.0332 5.60547V24.6055C12.0332 25.71 12.7794 26.6055 13.6999 26.6055H35.3665C36.287 26.6055 37.0332 25.71 37.0332 24.6055V5.60547C37.0332 4.5009 36.287 3.60547 35.3665 3.60547Z" fill="#FFEDDD"/>
<path id="online-service" d="M25.3301 4.63367H22.3231C22.262 4.47001 22.1665 4.32134 22.0431 4.19767L20.8921 3.04667C20.7107 2.86381 20.4757 2.74351 20.2213 2.70323C19.9668 2.66295 19.7062 2.70479 19.4771 2.82267L18.4661 3.33767C17.8735 3.00518 17.2434 2.74435 16.5891 2.56067L16.2391 1.48067C16.1601 1.23563 16.0052 1.02203 15.7969 0.87069C15.5886 0.719355 15.3376 0.638109 15.0801 0.638675H13.4511C13.1942 0.638368 12.9438 0.719642 12.7361 0.870786C12.5283 1.02193 12.3739 1.23514 12.2951 1.47967L11.9431 2.55967C11.289 2.74381 10.659 3.00462 10.0661 3.33667L9.05713 2.82267C8.82841 2.70372 8.5676 2.6612 8.31294 2.70133C8.05828 2.74146 7.82318 2.86215 7.64213 3.04567L6.49613 4.19167C6.37047 4.31565 6.27323 4.46543 6.21113 4.63067H3.20413C2.43093 4.63014 1.68918 4.93672 1.14198 5.48298C0.594774 6.02925 0.286928 6.77048 0.286133 7.54368V20.9757C0.287457 21.7478 0.594987 22.4879 1.14127 23.0337C1.68755 23.5794 2.42797 23.8861 3.20013 23.8867H10.8001C10.8566 23.8844 10.9125 23.8981 10.9615 23.9262C11.0106 23.9544 11.0506 23.9958 11.0771 24.0457L12.7141 26.8807C12.8729 27.1516 13.0997 27.3763 13.3722 27.5324C13.6446 27.6885 13.9531 27.7706 14.2671 27.7706C14.5811 27.7706 14.8897 27.6885 15.1621 27.5324C15.4345 27.3763 15.6614 27.1516 15.8201 26.8807L17.4571 24.0467C17.4833 23.9971 17.5228 23.9558 17.5712 23.9275C17.6197 23.8992 17.6751 23.8851 17.7311 23.8867H25.3311C26.1029 23.8859 26.8429 23.5789 27.3886 23.0332C27.9344 22.4874 28.2413 21.7475 28.2421 20.9757V7.54467C28.2403 6.77303 27.9329 6.03352 27.3871 5.48798C26.8414 4.94243 26.1018 4.63526 25.3301 4.63367ZM8.55113 4.22167L9.52413 4.72167C9.7056 4.81324 9.90726 4.85748 10.1104 4.85032C10.3135 4.84315 10.5116 4.7848 10.6861 4.68067C11.2391 4.35818 11.8332 4.11195 12.4521 3.94867C12.6496 3.8976 12.8309 3.79749 12.9793 3.65764C13.1277 3.51779 13.2384 3.34272 13.3011 3.14867L13.6391 2.11467H14.8941L15.2301 3.14967C15.2927 3.34348 15.4031 3.51839 15.5511 3.65823C15.6992 3.79806 15.8801 3.8983 16.0771 3.94967C16.6958 4.11253 17.2895 4.35843 17.8421 4.68067C18.0183 4.78483 18.218 4.84266 18.4226 4.84878C18.6272 4.8549 18.83 4.80911 19.0121 4.71567L19.9821 4.22167L20.8711 5.11067L20.3781 6.08067C20.283 6.26212 20.2359 6.4649 20.2413 6.66971C20.2467 6.87451 20.3045 7.07452 20.4091 7.25067C20.7303 7.80173 20.9761 8.39333 21.1401 9.00968C21.1885 9.20892 21.2876 9.39226 21.4278 9.5419C21.568 9.69154 21.7445 9.80239 21.9401 9.86368L22.9741 10.2017V11.4567L21.9421 11.7937C21.7471 11.8543 21.571 11.9641 21.4309 12.1127C21.2907 12.2612 21.1913 12.4434 21.1421 12.6417C20.9787 13.2595 20.7328 13.8525 20.4111 14.4047C20.3057 14.581 20.2472 14.7815 20.2415 14.9869C20.2357 15.1923 20.2827 15.3957 20.3781 15.5777L20.8701 16.5437L19.9811 17.4327L19.0111 16.9387C18.8296 16.8452 18.6274 16.7992 18.4234 16.805C18.2193 16.8107 18.02 16.8681 17.8441 16.9717C17.2923 17.2941 16.6992 17.54 16.0811 17.7027C15.8832 17.7535 15.7014 17.8534 15.5524 17.9933C15.4035 18.1332 15.2923 18.3084 15.2291 18.5027L14.8941 19.5347H13.6401L13.3021 18.4997C13.2396 18.3059 13.1292 18.131 12.9812 17.9911C12.8331 17.8513 12.6522 17.751 12.4551 17.6997C11.8374 17.5371 11.2446 17.2911 10.6931 16.9687C10.5171 16.8631 10.3169 16.8044 10.1117 16.7983C9.9065 16.7922 9.70317 16.8388 9.52113 16.9337L8.55313 17.4267L7.66513 16.5387L8.15913 15.5687C8.25282 15.387 8.29884 15.1846 8.29289 14.9803C8.28695 14.776 8.22922 14.5766 8.12513 14.4007C7.80094 13.8481 7.5543 13.2535 7.39213 12.6337C7.34125 12.4367 7.24114 12.2559 7.1012 12.1083C6.96126 11.9607 6.78608 11.851 6.59213 11.7897L5.55813 11.4517V10.1967L6.59313 9.85867C6.78736 9.7963 6.96261 9.68571 7.10251 9.53724C7.24241 9.38877 7.3424 9.20726 7.39313 9.00968C7.55535 8.38893 7.8027 7.79361 8.12813 7.24067C8.23097 7.06572 8.28775 6.86754 8.29317 6.66467C8.29859 6.4618 8.25247 6.26087 8.15913 6.08067L7.66513 5.11067L8.55113 4.22167ZM26.7661 20.9757C26.7659 21.3564 26.6145 21.7215 26.3452 21.9908C26.076 22.26 25.7109 22.4114 25.3301 22.4117H17.7301C17.415 22.4104 17.1051 22.4931 16.8325 22.6513C16.5599 22.8095 16.3344 23.0374 16.1791 23.3117L14.5421 26.1467C14.5161 26.1962 14.4765 26.2373 14.428 26.2651C14.3795 26.2929 14.324 26.3063 14.2681 26.3037C14.2119 26.3061 14.1561 26.2927 14.1071 26.265C14.0581 26.2372 14.0179 26.1962 13.9911 26.1467L12.3561 23.3107C12.2003 23.0362 11.9742 22.8082 11.7011 22.6501C11.428 22.4919 11.1177 22.4093 10.8021 22.4107H3.20213C2.8211 22.4107 2.45564 22.2594 2.18602 21.9902C1.9164 21.721 1.76466 21.3557 1.76413 20.9747V7.54467C1.76466 7.16364 1.9164 6.79839 2.18602 6.52915C2.45564 6.2599 2.8211 6.10867 3.20213 6.10867H6.51613L6.77913 6.62567C6.44533 7.21711 6.18411 7.84666 6.00113 8.50067L4.92213 8.85267C4.67709 8.93172 4.46348 9.08657 4.31215 9.29488C4.16081 9.50319 4.07957 9.75419 4.08013 10.0117V11.6387C4.07965 11.896 4.16081 12.1468 4.31194 12.3551C4.46306 12.5634 4.67635 12.7183 4.92113 12.7977L6.00113 13.1497C6.18395 13.8036 6.44483 14.4331 6.77813 15.0247L6.26213 16.0367C6.14541 16.2658 6.10422 16.5261 6.14446 16.7801C6.18469 17.0341 6.3043 17.2688 6.48613 17.4507L7.63213 18.5967C7.81269 18.7818 8.048 18.9041 8.30332 18.9453C8.55865 18.9865 8.82046 18.9446 9.05013 18.8257L10.0621 18.3097C10.6542 18.6429 11.284 18.9041 11.9381 19.0877L12.2901 20.1677C12.369 20.4124 12.5235 20.6257 12.7315 20.7769C12.9394 20.928 13.19 21.0092 13.4471 21.0087H15.0761C15.3336 21.0092 15.5846 20.928 15.7929 20.7767C16.0012 20.6253 16.1561 20.4117 16.2351 20.1667L16.5851 19.0877C17.2394 18.904 17.8695 18.6431 18.4621 18.3107L19.4711 18.8247C19.7005 18.9431 19.9616 18.9853 20.2166 18.9452C20.4716 18.9051 20.7072 18.7848 20.8891 18.6017L22.0441 17.4467C22.2263 17.2654 22.3459 17.0307 22.3856 16.7768C22.4254 16.5229 22.3832 16.263 22.2651 16.0347L21.7501 15.0237C22.0816 14.4316 22.3424 13.8026 22.5271 13.1497L23.6071 12.7977C23.8521 12.7186 24.0655 12.5637 24.2167 12.3554C24.3679 12.147 24.4489 11.8961 24.4481 11.6387V10.0107C24.4486 9.75336 24.3675 9.50252 24.2163 9.29425C24.0652 9.08599 23.8519 8.93103 23.6071 8.85167L22.5271 8.49967C22.3425 7.84672 22.0817 7.21773 21.7501 6.62567L22.0131 6.10867H25.3261C25.7069 6.10894 26.072 6.26032 26.3412 6.52956C26.6105 6.79881 26.7619 7.16391 26.7621 7.54467V20.9757H26.7661ZM14.2661 15.6397C15.2184 15.6395 16.1492 15.3569 16.9409 14.8277C17.7326 14.2985 18.3496 13.5464 18.7139 12.6666C19.0782 11.7868 19.1734 10.8187 18.9875 9.8847C18.8016 8.95075 18.3429 8.09289 17.6695 7.4196C16.9961 6.74631 16.1381 6.28783 15.2041 6.10212C14.2701 5.91641 13.302 6.01183 12.4223 6.37629C11.5425 6.74076 10.7906 7.35791 10.2615 8.14971C9.7325 8.94151 9.45013 9.8724 9.45013 10.8247C9.45172 12.1014 9.95966 13.3253 10.8625 14.228C11.7654 15.1307 12.9894 15.6383 14.2661 15.6397ZM14.2661 7.48467C14.9267 7.48467 15.5725 7.68056 16.1217 8.04757C16.671 8.41457 17.0991 8.9362 17.3519 9.54651C17.6047 10.1568 17.6708 10.8284 17.542 11.4763C17.4131 12.1242 17.095 12.7193 16.6279 13.1864C16.1608 13.6535 15.5656 13.9716 14.9177 14.1005C14.2698 14.2294 13.5983 14.1632 12.988 13.9104C12.3777 13.6576 11.856 13.2295 11.489 12.6803C11.122 12.131 10.9261 11.4853 10.9261 10.8247C10.9272 9.93918 11.2794 9.09025 11.9056 8.46411C12.5317 7.83797 13.3806 7.48573 14.2661 7.48467Z" fill="black"/>
</g>
</svg>
