<?xml version="1.0" encoding="utf-8"?>
<!-- Generator: Adobe Illustrator 27.5.0, SVG Export Plug-In . SVG Version: 6.00 Build 0)  -->
<svg version="1.1" id="Ebene_1" xmlns="http://www.w3.org/2000/svg" xmlns:xlink="http://www.w3.org/1999/xlink" x="0px" y="0px"
	 viewBox="0 0 1200 1200" style="enable-background:new 0 0 1200 1200;" xml:space="preserve">
<g>
	<g>
		<path style="fill:#346473;" d="M444.942,538.575c0,1.119-0.91,2.025-2.033,2.025h-28.403c-1.122,0-2.033-0.905-2.033-2.025
			v-28.408c0-1.118,0.91-2.036,2.033-2.036h28.403c1.123,0,2.033,0.918,2.033,2.036V538.575z"/>
		<path style="fill:#346473;" d="M485.748,538.575c0,1.119-0.913,2.025-2.031,2.025h-28.404c-1.118,0-2.028-0.905-2.028-2.025
			v-28.408c0-1.118,0.91-2.036,2.028-2.036h28.404c1.118,0,2.031,0.918,2.031,2.036V538.575z"/>
	</g>
	<g>
		<path style="fill:#346473;" d="M746.727,538.575c0,1.119-0.915,2.025-2.034,2.025h-28.408c-1.116,0-2.021-0.905-2.021-2.025
			v-28.408c0-1.118,0.905-2.036,2.021-2.036h28.408c1.119,0,2.034,0.918,2.034,2.036V538.575z"/>
		<path style="fill:#346473;" d="M787.527,538.575c0,1.119-0.909,2.025-2.028,2.025h-28.408c-1.113,0-2.028-0.905-2.028-2.025
			v-28.408c0-1.118,0.915-2.036,2.028-2.036h28.408c1.119,0,2.028,0.918,2.028,2.036V538.575z"/>
	</g>
	<g>
		<path style="fill:#346473;" d="M852.139,511.845l-35.506-35.516c0-0.008,0.003-0.011,0.003-0.011v-25.134
			c0-1.407-1.151-2.55-2.553-2.55H802.9c-1.402,0-2.55,1.143-2.55,2.55v8.864l-47.016-47.022c-1.343-1.338-3.537-1.338-4.879,0
			l-4.879,4.884c-1.343,1.342-3.537,3.54-4.882,4.879l-42.536,42.534l-83.959-83.956c-1.339-1.35-3.534-3.542-4.879-4.887
			l-4.879-4.875c-1.339-1.347-3.537-1.347-4.879,0l-47.014,47.01v-8.861c0-1.394-1.146-2.55-2.553-2.55h-11.181
			c-1.404,0-2.554,1.156-2.554,2.55v25.129c0,0.008,0.008,0.013,0.008,0.02l-30.423,30.42l-42.531-42.534
			c-1.342-1.339-3.542-3.537-4.879-4.879l-4.887-4.884c-1.338-1.338-3.532-1.338-4.875,0l-47.014,47.022v-8.864
			c0-1.407-1.149-2.55-2.553-2.55h-11.178c-1.412,0-2.558,1.143-2.558,2.55v25.134c0,0,0.005,0.003,0.005,0.011l-35.511,35.516
			c-1.337,1.338-1.337,3.532,0.005,4.87l4.878,4.884c1.34,1.338,3.537,1.338,4.884,0l89.043-89.052c1.342-1.346,3.537-1.346,4.875,0
			l89.052,89.052c1.342,1.338,3.537,1.338,4.879,0l4.878-4.884c1.347-1.338,1.347-3.532,0-4.87L513.6,475.078l83.961-83.956
			c1.343-1.342,3.54-1.342,4.879,0l83.959,83.956l-36.755,36.767c-1.342,1.338-1.342,3.532,0,4.87l4.879,4.884
			c1.346,1.338,3.543,1.338,4.882,0l89.049-89.052c1.345-1.346,3.537-1.346,4.879,0l89.046,89.052c1.339,1.338,3.537,1.338,4.882,0
			l4.876-4.884C853.482,515.377,853.485,513.182,852.139,511.845z"/>
		<path style="fill:#346473;" d="M453.505,441.753c-0.519-0.522-1.358-1.354-1.872-1.868l-1.872-1.877
			c-0.514-0.509-1.355-0.509-1.869,0l-37.847,37.856c-0.519,0.509-0.519,1.353,0,1.867l1.867,1.869c0.514,0.517,1.355,0.517,1.869,0
			l34.111-34.12c0.514-0.509,1.355-0.509,1.869,0l34.118,34.12c0.514,0.517,1.355,0.517,1.869,0l1.867-1.869
			c0.514-0.514,0.514-1.358,0-1.867L453.505,441.753z"/>
		<path style="fill:#346473;" d="M604.676,399.965c-0.513-0.514-1.355-1.355-1.871-1.869l-1.867-1.867
			c-0.512-0.519-1.361-0.519-1.87,0l-37.852,37.852c-0.519,0.517-0.514,1.35,0,1.865l1.867,1.877c0.514,0.509,1.355,0.509,1.869,0
			l34.115-34.115c0.509-0.511,1.358-0.511,1.87,0l34.114,34.115c0.513,0.514,1.352,0.514,1.867,0l1.874-1.877
			c0.509-0.514,0.509-1.347,0-1.865L604.676,399.965z"/>
		<path style="fill:#346473;" d="M755.57,441.753c-0.519-0.522-1.358-1.354-1.874-1.868l-1.87-1.877
			c-0.516-0.509-1.355-0.509-1.871,0l-37.852,37.856c-0.516,0.509-0.516,1.353,0,1.867l1.874,1.869c0.513,0.517,1.355,0.517,1.868,0
			l34.11-34.12c0.516-0.509,1.355-0.509,1.871,0l34.113,34.12c0.519,0.517,1.358,0.517,1.874,0l1.867-1.869
			c0.516-0.514,0.516-1.358,0-1.867L755.57,441.753z"/>
	</g>
	<path style="fill:#25A55F;" d="M600.001,576.068c120.431,0,224.649,25.435,274.969,62.446
		c-15.056-47.312-132.409-84.161-274.969-84.161c-142.563,0-259.918,36.849-274.97,84.161
		C375.354,601.503,479.572,576.068,600.001,576.068z"/>
	<path style="fill:#346473;" d="M444.942,564.108v-15.317c0-1.115-0.91-2.025-2.033-2.025h-28.403c-1.122,0-2.033,0.91-2.033,2.025
		v24.129C422.629,569.713,433.467,566.759,444.942,564.108z"/>
	<path style="fill:#346473;" d="M485.748,556.287v-7.496c0-1.115-0.913-2.025-2.031-2.025h-28.404c-1.118,0-2.028,0.91-2.028,2.025
		v13.452C463.662,560.021,474.501,558.034,485.748,556.287z"/>
	<path style="fill:#346473;" d="M746.727,562.243v-13.452c0-1.115-0.915-2.025-2.034-2.025h-28.408c-1.116,0-2.021,0.91-2.021,2.025
		v7.496C725.506,558.034,736.342,560.021,746.727,562.243z"/>
	<path style="fill:#346473;" d="M787.527,572.92v-24.129c0-1.115-0.909-2.025-2.028-2.025h-28.408c-1.113,0-2.028,0.91-2.028,2.025
		v15.317C766.539,566.759,777.379,569.713,787.527,572.92z"/>
	<g>
		<g>
			<path style="fill:#346473;" d="M595.826,501.899c0,1.118-0.909,2.031-2.025,2.031h-28.409c-1.117,0-2.028-0.913-2.028-2.031
				v-28.417c0-1.11,0.91-2.023,2.028-2.023h28.409c1.116,0,2.025,0.913,2.025,2.023V501.899z"/>
			<path style="fill:#346473;" d="M636.633,501.899c0,1.118-0.909,2.031-2.028,2.031h-28.408c-1.116,0-2.028-0.913-2.028-2.031
				v-28.417c0-1.11,0.912-2.023,2.028-2.023h28.408c1.119,0,2.028,0.913,2.028,2.023V501.899z"/>
		</g>
		<g>
			<path style="fill:#346473;" d="M595.826,540.521c0,1.122-0.909,2.033-2.025,2.033h-28.409c-1.117,0-2.028-0.91-2.028-2.033
				v-28.408c0-1.11,0.91-2.023,2.028-2.023h28.409c1.116,0,2.025,0.913,2.025,2.023V540.521z"/>
			<path style="fill:#346473;" d="M636.633,540.521c0,1.122-0.909,2.033-2.028,2.033h-28.408c-1.116,0-2.028-0.91-2.028-2.033
				v-28.408c0-1.11,0.912-2.023,2.028-2.023h28.408c1.119,0,2.028,0.913,2.028,2.023V540.521z"/>
		</g>
	</g>
</g>
<g>
	<path style="fill:#346473;" d="M250,677.219h46.249c10.668,0,18.67,2.306,24.006,6.917c5.334,4.611,8.002,11.033,8.002,19.259
		c0,4.611-0.678,8.432-2.034,11.46c-1.356,3.03-2.939,5.472-4.747,7.324c-1.81,1.855-3.594,3.188-5.357,4.001
		c-1.763,0.814-3.052,1.357-3.866,1.628v0.271c1.445,0.182,3.005,0.634,4.679,1.357c1.672,0.725,3.232,1.877,4.679,3.458
		c1.445,1.583,2.645,3.641,3.594,6.171c0.949,2.532,1.424,5.697,1.424,9.494c0,5.697,0.428,10.874,1.288,15.529
		c0.859,4.658,2.191,7.981,4.001,9.969h-18.174c-1.267-2.079-2.013-4.384-2.238-6.917c-0.227-2.531-0.339-4.972-0.339-7.324
		c0-4.43-0.271-8.25-0.814-11.461c-0.542-3.208-1.538-5.877-2.984-8.001c-1.447-2.124-3.414-3.683-5.9-4.68
		c-2.488-0.993-5.675-1.491-9.561-1.491h-24.955v39.874H250V677.219z M266.953,721.298h27.803c5.425,0,9.538-1.289,12.342-3.866
		c2.802-2.577,4.204-6.442,4.204-11.596c0-3.073-0.453-5.582-1.356-7.528c-0.905-1.943-2.149-3.458-3.729-4.543
		c-1.583-1.085-3.391-1.808-5.425-2.17c-2.034-0.36-4.137-0.542-6.307-0.542h-27.532V721.298z"/>
	<path style="fill:#346473;" d="M355.381,742.998c0,2.712,0.384,5.336,1.153,7.866c0.768,2.532,1.92,4.748,3.459,6.646
		c1.536,1.899,3.479,3.414,5.832,4.544c2.35,1.131,5.154,1.695,8.409,1.695c4.52,0,8.159-0.97,10.918-2.916
		c2.757-1.943,4.815-4.859,6.171-8.748h14.648c-0.814,3.798-2.217,7.188-4.204,10.172c-1.99,2.984-4.387,5.492-7.188,7.527
		c-2.804,2.034-5.946,3.573-9.426,4.611c-3.482,1.039-7.121,1.56-10.918,1.56c-5.516,0-10.399-0.905-14.648-2.712
		c-4.251-1.808-7.845-4.34-10.782-7.596c-2.939-3.255-5.154-7.141-6.646-11.663c-1.492-4.52-2.238-9.494-2.238-14.919
		c0-4.972,0.79-9.697,2.373-14.172c1.581-4.476,3.842-8.409,6.782-11.8c2.937-3.39,6.487-6.08,10.646-8.069
		c4.158-1.988,8.86-2.984,14.105-2.984c5.514,0,10.464,1.153,14.851,3.459c4.384,2.306,8.023,5.357,10.918,9.155
		c2.893,3.798,4.995,8.16,6.307,13.088c1.309,4.929,1.649,10.015,1.017,15.258H355.381z M391.457,732.826
		c-0.182-2.441-0.701-4.791-1.56-7.052c-0.86-2.259-2.034-4.225-3.526-5.9c-1.492-1.672-3.302-3.028-5.425-4.069
		c-2.126-1.038-4.499-1.559-7.121-1.559c-2.712,0-5.177,0.474-7.391,1.424c-2.217,0.95-4.116,2.261-5.697,3.933
		c-1.583,1.675-2.848,3.641-3.797,5.9c-0.949,2.261-1.471,4.702-1.56,7.323H391.457z"/>
	<path style="fill:#346473;" d="M477.445,758.459c0,1.899,0.248,3.255,0.746,4.069c0.496,0.813,1.468,1.22,2.916,1.22
		c0.451,0,0.994,0,1.628,0c0.631,0,1.356-0.089,2.17-0.271v10.714c-0.543,0.18-1.244,0.383-2.102,0.61
		c-0.86,0.225-1.742,0.429-2.645,0.611c-0.905,0.18-1.81,0.315-2.712,0.407c-0.905,0.089-1.674,0.136-2.306,0.136
		c-3.166,0-5.788-0.634-7.866-1.899c-2.081-1.265-3.438-3.48-4.069-6.646c-3.075,2.984-6.849,5.154-11.325,6.51
		c-4.476,1.357-8.795,2.034-12.952,2.034c-3.166,0-6.194-0.43-9.087-1.289c-2.895-0.858-5.449-2.123-7.663-3.797
		c-2.217-1.672-3.98-3.798-5.289-6.374c-1.312-2.578-1.967-5.582-1.967-9.019c0-4.34,0.79-7.867,2.374-10.579
		c1.581-2.713,3.662-4.836,6.239-6.375c2.577-1.536,5.469-2.644,8.68-3.323c3.208-0.678,6.442-1.197,9.697-1.559
		c2.801-0.543,5.469-0.926,8.002-1.153c2.53-0.224,4.768-0.61,6.714-1.152c1.943-0.543,3.48-1.378,4.611-2.51
		c1.13-1.129,1.696-2.824,1.696-5.086c0-1.988-0.475-3.615-1.424-4.882c-0.949-1.265-2.125-2.238-3.526-2.917
		c-1.403-0.678-2.963-1.129-4.679-1.356c-1.719-0.225-3.346-0.339-4.882-0.339c-4.34,0-7.913,0.905-10.715,2.712
		c-2.804,1.809-4.387,4.611-4.747,8.409h-15.461c0.272-4.52,1.357-8.273,3.255-11.257c1.899-2.984,4.317-5.379,7.256-7.189
		c2.937-1.808,6.26-3.072,9.968-3.797c3.707-0.723,7.504-1.086,11.393-1.086c3.435,0,6.826,0.362,10.172,1.086
		c3.344,0.725,6.351,1.899,9.019,3.526c2.666,1.628,4.815,3.73,6.442,6.307c1.627,2.577,2.441,5.72,2.441,9.426V758.459z
		 M461.983,738.929c-2.353,1.538-5.245,2.465-8.68,2.78c-3.437,0.318-6.872,0.792-10.307,1.424
		c-1.628,0.271-3.211,0.657-4.747,1.152c-1.539,0.498-2.895,1.177-4.069,2.034c-1.176,0.86-2.102,1.99-2.78,3.391
		c-0.678,1.403-1.017,3.098-1.017,5.086c0,1.719,0.496,3.166,1.492,4.34c0.994,1.177,2.191,2.102,3.594,2.78
		c1.401,0.679,2.937,1.153,4.611,1.424c1.672,0.271,3.187,0.407,4.543,0.407c1.716,0,3.571-0.224,5.561-0.678
		c1.988-0.451,3.866-1.221,5.629-2.306c1.763-1.086,3.232-2.462,4.408-4.137c1.174-1.672,1.763-3.73,1.763-6.171V738.929z"/>
	<path style="fill:#346473;" d="M494.534,677.219h15.461v96.837h-15.461V677.219z"/>
	<path style="fill:#346473;" d="M566.687,677.219h69.712v14.648H583.64v25.362h48.826v13.834H583.64v28.346h53.708v14.648h-70.661
		V677.219z"/>
	<path style="fill:#346473;" d="M661.624,751.542c0.451,4.522,2.17,7.686,5.154,9.494c2.984,1.81,6.555,2.712,10.715,2.712
		c1.445,0,3.096-0.112,4.951-0.339c1.852-0.224,3.593-0.654,5.221-1.288c1.628-0.632,2.96-1.56,4.001-2.781
		c1.039-1.22,1.513-2.824,1.424-4.815c-0.091-1.988-0.814-3.615-2.17-4.882c-1.356-1.265-3.098-2.282-5.221-3.052
		c-2.126-0.767-4.543-1.424-7.256-1.966c-2.713-0.543-5.472-1.13-8.273-1.763c-2.895-0.632-5.675-1.401-8.341-2.306
		c-2.668-0.903-5.065-2.124-7.188-3.662c-2.126-1.536-3.821-3.503-5.086-5.9c-1.268-2.394-1.899-5.357-1.899-8.883
		c0-3.797,0.926-6.985,2.78-9.561c1.852-2.577,4.205-4.656,7.052-6.239c2.848-1.581,6.012-2.689,9.494-3.323
		c3.48-0.632,6.803-0.95,9.969-0.95c3.615,0,7.074,0.386,10.376,1.153c3.299,0.769,6.283,2.013,8.951,3.729
		c2.666,1.719,4.882,3.957,6.646,6.714c1.763,2.759,2.869,6.082,3.322,9.969h-16.139c-0.725-3.707-2.42-6.192-5.086-7.459
		c-2.668-1.265-5.72-1.899-9.155-1.899c-1.086,0-2.374,0.091-3.866,0.271c-1.492,0.182-2.895,0.521-4.205,1.017
		c-1.312,0.498-2.42,1.221-3.323,2.17c-0.905,0.95-1.356,2.193-1.356,3.73c0,1.899,0.654,3.437,1.967,4.611
		c1.31,1.176,3.028,2.149,5.154,2.916c2.123,0.77,4.543,1.424,7.256,1.967c2.713,0.543,5.514,1.132,8.409,1.763
		c2.802,0.634,5.561,1.403,8.273,2.306c2.712,0.905,5.13,2.126,7.256,3.662c2.123,1.538,3.842,3.481,5.154,5.832
		c1.309,2.352,1.966,5.245,1.966,8.679c0,4.16-0.949,7.687-2.848,10.579c-1.899,2.895-4.364,5.246-7.391,7.053
		c-3.03,1.809-6.398,3.119-10.104,3.932c-3.708,0.814-7.37,1.221-10.986,1.221c-4.431,0-8.523-0.498-12.274-1.492
		c-3.753-0.993-7.008-2.509-9.766-4.543c-2.759-2.035-4.929-4.564-6.51-7.595c-1.583-3.029-2.42-6.623-2.509-10.782H661.624z"/>
	<path style="fill:#346473;" d="M713.297,703.938h11.665v-21.023h15.461v21.023h13.969v11.528h-13.969v37.433
		c0,1.628,0.068,3.03,0.203,4.204c0.135,1.177,0.451,2.17,0.949,2.984c0.496,0.813,1.242,1.424,2.238,1.83
		c0.994,0.407,2.351,0.611,4.069,0.611c1.086,0,2.17-0.022,3.255-0.068c1.085-0.044,2.17-0.203,3.255-0.475v11.936
		c-1.718,0.18-3.39,0.36-5.018,0.542c-1.628,0.18-3.302,0.271-5.018,0.271c-4.069,0-7.348-0.386-9.833-1.152
		c-2.488-0.768-4.431-1.899-5.831-3.391c-1.403-1.491-2.352-3.367-2.849-5.628c-0.498-2.26-0.792-4.836-0.881-7.731v-41.366h-11.665
		V703.938z"/>
	<path style="fill:#346473;" d="M824.239,758.459c0,1.899,0.248,3.255,0.746,4.069c0.495,0.813,1.469,1.22,2.916,1.22
		c0.452,0,0.994,0,1.628,0c0.632,0,1.357-0.089,2.17-0.271v10.714c-0.542,0.18-1.244,0.383-2.102,0.61
		c-0.86,0.225-1.742,0.429-2.645,0.611c-0.905,0.18-1.81,0.315-2.712,0.407c-0.905,0.089-1.675,0.136-2.306,0.136
		c-3.166,0-5.787-0.634-7.866-1.899c-2.081-1.265-3.437-3.48-4.069-6.646c-3.075,2.984-6.849,5.154-11.325,6.51
		c-4.476,1.357-8.795,2.034-12.952,2.034c-3.166,0-6.195-0.43-9.087-1.289c-2.895-0.858-5.449-2.123-7.663-3.797
		c-2.216-1.672-3.979-3.798-5.289-6.374c-1.312-2.578-1.967-5.582-1.967-9.019c0-4.34,0.79-7.867,2.373-10.579
		c1.581-2.713,3.662-4.836,6.239-6.375c2.577-1.536,5.47-2.644,8.68-3.323c3.209-0.678,6.442-1.197,9.697-1.559
		c2.802-0.543,5.47-0.926,8.002-1.153c2.53-0.224,4.768-0.61,6.714-1.152c1.943-0.543,3.48-1.378,4.611-2.51
		c1.13-1.129,1.695-2.824,1.695-5.086c0-1.988-0.474-3.615-1.424-4.882c-0.949-1.265-2.126-2.238-3.526-2.917
		c-1.404-0.678-2.963-1.129-4.68-1.356c-1.718-0.225-3.346-0.339-4.882-0.339c-4.34,0-7.913,0.905-10.715,2.712
		c-2.803,1.809-4.386,4.611-4.747,8.409h-15.461c0.271-4.52,1.357-8.273,3.255-11.257c1.899-2.984,4.317-5.379,7.256-7.189
		c2.938-1.808,6.26-3.072,9.968-3.797c3.706-0.723,7.504-1.086,11.393-1.086c3.434,0,6.826,0.362,10.171,1.086
		c3.344,0.725,6.351,1.899,9.019,3.526c2.666,1.628,4.815,3.73,6.442,6.307c1.628,2.577,2.442,5.72,2.442,9.426V758.459z
		 M808.777,738.929c-2.352,1.538-5.245,2.465-8.68,2.78c-3.437,0.318-6.872,0.792-10.307,1.424
		c-1.628,0.271-3.211,0.657-4.747,1.152c-1.539,0.498-2.895,1.177-4.069,2.034c-1.177,0.86-2.102,1.99-2.781,3.391
		c-0.678,1.403-1.017,3.098-1.017,5.086c0,1.719,0.496,3.166,1.492,4.34c0.993,1.177,2.191,2.102,3.594,2.78
		c1.401,0.679,2.938,1.153,4.611,1.424c1.672,0.271,3.188,0.407,4.544,0.407c1.717,0,3.57-0.224,5.56-0.678
		c1.988-0.451,3.866-1.221,5.629-2.306c1.762-1.086,3.231-2.462,4.408-4.137c1.173-1.672,1.762-3.73,1.762-6.171V738.929z"/>
	<path style="fill:#346473;" d="M833.868,703.938h11.664v-21.023h15.461v21.023h13.969v11.528h-13.969v37.433
		c0,1.628,0.068,3.03,0.203,4.204c0.136,1.177,0.451,2.17,0.949,2.984c0.496,0.813,1.242,1.424,2.238,1.83
		c0.994,0.407,2.351,0.611,4.069,0.611c1.086,0,2.17-0.022,3.255-0.068c1.085-0.044,2.17-0.203,3.255-0.475v11.936
		c-1.718,0.18-3.39,0.36-5.018,0.542c-1.628,0.18-3.302,0.271-5.018,0.271c-4.069,0-7.348-0.386-9.833-1.152
		c-2.488-0.768-4.431-1.899-5.831-3.391c-1.403-1.491-2.352-3.367-2.849-5.628c-0.498-2.26-0.793-4.836-0.881-7.731v-41.366h-11.664
		V703.938z"/>
	<path style="fill:#346473;" d="M898.154,742.998c0,2.712,0.384,5.336,1.153,7.866c0.767,2.532,1.92,4.748,3.458,6.646
		c1.537,1.899,3.48,3.414,5.832,4.544c2.35,1.131,5.154,1.695,8.409,1.695c4.52,0,8.159-0.97,10.918-2.916
		c2.757-1.943,4.815-4.859,6.171-8.748h14.647c-0.813,3.798-2.216,7.188-4.204,10.172c-1.989,2.984-4.386,5.492-7.188,7.527
		c-2.804,2.034-5.946,3.573-9.426,4.611c-3.482,1.039-7.12,1.56-10.918,1.56c-5.517,0-10.399-0.905-14.648-2.712
		c-4.25-1.808-7.845-4.34-10.782-7.596c-2.939-3.255-5.154-7.141-6.646-11.663c-1.491-4.52-2.238-9.494-2.238-14.919
		c0-4.972,0.791-9.697,2.373-14.172c1.581-4.476,3.842-8.409,6.781-11.8c2.937-3.39,6.487-6.08,10.647-8.069
		c4.158-1.988,8.86-2.984,14.106-2.984c5.513,0,10.464,1.153,14.85,3.459c4.385,2.306,8.023,5.357,10.918,9.155
		c2.893,3.798,4.995,8.16,6.307,13.088c1.31,4.929,1.649,10.015,1.018,15.258H898.154z M934.231,732.826
		c-0.182-2.441-0.701-4.791-1.56-7.052c-0.86-2.259-2.034-4.225-3.527-5.9c-1.491-1.672-3.302-3.028-5.425-4.069
		c-2.126-1.038-4.499-1.559-7.12-1.559c-2.713,0-5.178,0.474-7.392,1.424c-2.216,0.95-4.115,2.261-5.696,3.933
		c-1.583,1.675-2.849,3.641-3.798,5.9c-0.95,2.261-1.471,4.702-1.56,7.323H934.231z"/>
</g>
<g>
	<path style="fill:#346473;" d="M341.168,803.484h4.488l4.847,13.858h0.072l4.703-13.858h4.272l-7.216,19.566
		c-0.335,0.838-0.664,1.639-0.987,2.405c-0.323,0.766-0.718,1.442-1.185,2.029c-0.467,0.587-1.047,1.053-1.742,1.4
		c-0.694,0.346-1.58,0.52-2.657,0.52c-0.957,0-1.903-0.072-2.836-0.215v-3.446c0.335,0.048,0.658,0.101,0.97,0.162
		c0.311,0.059,0.634,0.089,0.97,0.089c0.478,0,0.873-0.06,1.185-0.18c0.311-0.12,0.568-0.293,0.772-0.521
		c0.203-0.227,0.377-0.497,0.521-0.807c0.143-0.311,0.275-0.67,0.395-1.077l0.467-1.436L341.168,803.484z"/>
	<path style="fill:#346473;" d="M377.536,822.548c-1.484,0-2.807-0.246-3.967-0.736c-1.161-0.49-2.142-1.167-2.944-2.029
		c-0.802-0.861-1.413-1.891-1.831-3.087c-0.419-1.197-0.628-2.513-0.628-3.949c0-1.412,0.209-2.716,0.628-3.913
		c0.419-1.196,1.029-2.225,1.831-3.087c0.802-0.862,1.783-1.537,2.944-2.029c1.161-0.49,2.483-0.736,3.967-0.736
		c1.484,0,2.806,0.245,3.967,0.736c1.161,0.491,2.142,1.167,2.944,2.029c0.802,0.862,1.412,1.891,1.831,3.087
		c0.418,1.198,0.628,2.501,0.628,3.913c0,1.436-0.21,2.753-0.628,3.949c-0.419,1.197-1.029,2.226-1.831,3.087
		c-0.802,0.862-1.783,1.538-2.944,2.029C380.342,822.302,379.02,822.548,377.536,822.548z M377.536,819.316
		c0.909,0,1.699-0.192,2.369-0.575c0.67-0.383,1.221-0.885,1.652-1.507c0.431-0.623,0.748-1.322,0.952-2.101
		c0.203-0.778,0.305-1.573,0.305-2.388c0-0.79-0.102-1.579-0.305-2.369c-0.204-0.79-0.521-1.49-0.952-2.101
		c-0.431-0.61-0.982-1.106-1.652-1.49c-0.67-0.383-1.46-0.574-2.369-0.574c-0.91,0-1.7,0.192-2.37,0.574
		c-0.67,0.383-1.22,0.88-1.651,1.49c-0.431,0.611-0.749,1.311-0.952,2.101c-0.204,0.79-0.305,1.579-0.305,2.369
		c0,0.814,0.101,1.61,0.305,2.388c0.203,0.778,0.521,1.478,0.952,2.101c0.431,0.623,0.981,1.125,1.651,1.507
		C375.836,819.125,376.626,819.316,377.536,819.316z"/>
	<path style="fill:#346473;" d="M413.796,822.045h-4.021v-2.585h-0.072c-0.503,0.934-1.251,1.682-2.244,2.244
		c-0.994,0.562-2.005,0.844-3.034,0.844c-2.441,0-4.207-0.604-5.295-1.813c-1.09-1.208-1.634-3.034-1.634-5.475v-11.776h4.093
		v11.381c0,1.628,0.31,2.777,0.933,3.447c0.622,0.67,1.496,1.005,2.621,1.005c0.862,0,1.58-0.131,2.154-0.395
		c0.574-0.264,1.041-0.616,1.4-1.06c0.359-0.443,0.616-0.975,0.772-1.598c0.156-0.622,0.234-1.292,0.234-2.01v-10.771h4.093V822.045
		z"/>
	<path style="fill:#346473;" d="M425.284,803.484h3.841v3.59h0.072c0.119-0.502,0.353-0.993,0.7-1.472
		c0.346-0.478,0.766-0.915,1.257-1.31c0.49-0.395,1.035-0.712,1.634-0.951c0.598-0.239,1.208-0.359,1.831-0.359
		c0.479,0,0.808,0.013,0.988,0.036c0.179,0.023,0.364,0.048,0.556,0.071v3.949c-0.287-0.048-0.58-0.09-0.879-0.125
		c-0.299-0.036-0.592-0.054-0.88-0.054c-0.694,0-1.346,0.138-1.957,0.412c-0.61,0.275-1.143,0.682-1.598,1.221
		c-0.455,0.538-0.814,1.203-1.077,1.993c-0.264,0.789-0.395,1.7-0.395,2.728v8.832h-4.093V803.484z"/>
	<path style="fill:#346473;" d="M460.394,803.484h3.088v-5.564h4.093v5.564h3.698v3.052h-3.698v9.909
		c0,0.431,0.018,0.802,0.054,1.113c0.035,0.311,0.119,0.574,0.251,0.789c0.132,0.216,0.329,0.378,0.592,0.485
		c0.263,0.107,0.622,0.161,1.077,0.161c0.287,0,0.574-0.006,0.862-0.018c0.287-0.012,0.574-0.053,0.862-0.125v3.159
		c-0.455,0.048-0.898,0.095-1.328,0.144c-0.431,0.048-0.874,0.071-1.328,0.071c-1.077,0-1.945-0.101-2.603-0.305
		c-0.659-0.203-1.173-0.503-1.544-0.898c-0.371-0.394-0.623-0.891-0.754-1.49c-0.132-0.598-0.21-1.281-0.234-2.046v-10.95h-3.088
		V803.484z"/>
	<path style="fill:#346473;" d="M496.941,817.916c0,0.502,0.065,0.861,0.197,1.077c0.132,0.215,0.39,0.323,0.772,0.323
		c0.121,0,0.264,0,0.432,0c0.167,0,0.358-0.023,0.574-0.072v2.836c-0.144,0.048-0.33,0.101-0.556,0.161
		c-0.229,0.059-0.462,0.113-0.701,0.161c-0.239,0.048-0.479,0.084-0.718,0.108c-0.239,0.023-0.442,0.036-0.609,0.036
		c-0.839,0-1.533-0.168-2.082-0.503c-0.552-0.335-0.911-0.921-1.078-1.759c-0.814,0.79-1.813,1.364-2.998,1.723
		c-1.185,0.359-2.328,0.539-3.428,0.539c-0.839,0-1.64-0.114-2.405-0.341c-0.767-0.227-1.443-0.562-2.029-1.005
		c-0.587-0.443-1.054-1.005-1.4-1.687c-0.347-0.682-0.521-1.478-0.521-2.388c0-1.149,0.209-2.082,0.628-2.8
		c0.418-0.718,0.969-1.28,1.651-1.687c0.683-0.407,1.448-0.701,2.298-0.88c0.849-0.18,1.706-0.317,2.568-0.413
		c0.741-0.143,1.448-0.245,2.117-0.305c0.669-0.06,1.262-0.162,1.777-0.305c0.514-0.144,0.921-0.365,1.22-0.664
		c0.3-0.299,0.449-0.747,0.449-1.346c0-0.526-0.125-0.957-0.377-1.293c-0.251-0.335-0.562-0.593-0.934-0.772
		c-0.372-0.18-0.783-0.299-1.239-0.359c-0.455-0.059-0.885-0.09-1.292-0.09c-1.148,0-2.094,0.239-2.835,0.718
		c-0.743,0.479-1.161,1.22-1.257,2.225h-4.093c0.072-1.196,0.359-2.189,0.862-2.979c0.503-0.79,1.142-1.423,1.921-1.903
		c0.778-0.479,1.657-0.813,2.64-1.005c0.981-0.192,1.985-0.287,3.014-0.287c0.911,0,1.808,0.095,2.693,0.287
		c0.885,0.192,1.681,0.503,2.387,0.933c0.706,0.431,1.275,0.987,1.706,1.669c0.432,0.682,0.646,1.514,0.646,2.496V817.916z
		 M492.849,812.746c-0.623,0.408-1.388,0.653-2.298,0.736c-0.909,0.084-1.819,0.209-2.728,0.377c-0.43,0.072-0.85,0.174-1.257,0.306
		c-0.407,0.131-0.765,0.311-1.076,0.538c-0.311,0.228-0.557,0.527-0.736,0.898s-0.269,0.82-0.269,1.346
		c0,0.455,0.132,0.839,0.395,1.149c0.263,0.311,0.581,0.556,0.952,0.736c0.37,0.179,0.777,0.305,1.22,0.377
		c0.442,0.072,0.844,0.108,1.203,0.108c0.454,0,0.944-0.059,1.471-0.18c0.526-0.12,1.023-0.323,1.49-0.61
		c0.467-0.287,0.855-0.652,1.167-1.095c0.311-0.443,0.467-0.988,0.467-1.634V812.746z"/>
	<path style="fill:#346473;" d="M525.699,821.076c0,2.8-0.785,4.888-2.352,6.265c-1.568,1.376-3.824,2.064-6.768,2.064
		c-0.933,0-1.873-0.095-2.818-0.287c-0.946-0.192-1.808-0.515-2.585-0.969c-0.778-0.455-1.43-1.054-1.957-1.795
		c-0.526-0.742-0.838-1.651-0.933-2.728h4.092c0.12,0.574,0.323,1.041,0.61,1.4c0.288,0.359,0.628,0.639,1.023,0.844
		c0.395,0.203,0.831,0.335,1.31,0.395c0.479,0.059,0.981,0.089,1.508,0.089c1.651,0,2.86-0.408,3.625-1.221
		c0.766-0.813,1.149-1.987,1.149-3.518v-2.836h-0.072c-0.574,1.029-1.358,1.831-2.352,2.405c-0.993,0.575-2.064,0.862-3.213,0.862
		c-1.485,0-2.747-0.257-3.788-0.772c-1.041-0.515-1.902-1.221-2.585-2.118c-0.682-0.898-1.179-1.933-1.49-3.106
		c-0.311-1.173-0.467-2.429-0.467-3.769c0-1.244,0.192-2.429,0.575-3.554c0.383-1.125,0.933-2.112,1.651-2.963
		c0.718-0.849,1.598-1.526,2.639-2.028c1.041-0.503,2.22-0.754,3.537-0.754c1.172,0,2.249,0.245,3.231,0.736
		c0.981,0.491,1.735,1.263,2.261,2.316h0.072v-2.549h4.093V821.076z M516.616,818.813c0.91,0,1.681-0.185,2.316-0.557
		c0.634-0.371,1.149-0.861,1.544-1.472c0.395-0.61,0.682-1.304,0.861-2.082c0.18-0.778,0.269-1.562,0.269-2.352
		c0-0.789-0.096-1.555-0.287-2.297c-0.192-0.742-0.484-1.4-0.88-1.975c-0.395-0.574-0.91-1.029-1.544-1.364
		c-0.634-0.335-1.394-0.502-2.28-0.502c-0.91,0-1.675,0.192-2.297,0.574c-0.623,0.383-1.126,0.88-1.508,1.49
		c-0.383,0.611-0.659,1.305-0.826,2.082c-0.167,0.778-0.251,1.55-0.251,2.316c0,0.767,0.095,1.515,0.287,2.245
		c0.192,0.73,0.485,1.382,0.88,1.957c0.395,0.574,0.898,1.041,1.508,1.4C515.018,818.634,515.755,818.813,516.616,818.813z"/>
	<path style="fill:#346473;" d="M537.115,796.411h4.092v25.634h-4.092V796.411z"/>
	<path style="fill:#346473;" d="M552.947,796.411h4.092v3.877h-4.092V796.411z M552.947,803.484h4.092v18.561h-4.092V803.484z"/>
	<path style="fill:#346473;" d="M568.672,803.484h3.877v2.729l0.072,0.071c0.622-1.029,1.436-1.836,2.441-2.423
		c1.005-0.587,2.118-0.88,3.338-0.88c2.034,0,3.638,0.526,4.811,1.579c1.172,1.054,1.759,2.634,1.759,4.739v12.745h-4.093v-11.668
		c-0.048-1.46-0.358-2.519-0.933-3.178c-0.574-0.658-1.472-0.987-2.692-0.987c-0.695,0-1.316,0.126-1.867,0.377
		c-0.551,0.251-1.018,0.599-1.4,1.041c-0.383,0.443-0.682,0.964-0.898,1.562c-0.215,0.598-0.323,1.234-0.323,1.903v10.95h-4.092
		V803.484z"/>
	<path style="fill:#346473;" d="M599.654,813.823c0,0.718,0.101,1.413,0.306,2.082c0.202,0.67,0.508,1.257,0.915,1.759
		c0.407,0.503,0.922,0.904,1.544,1.203c0.622,0.3,1.364,0.449,2.226,0.449c1.197,0,2.159-0.257,2.89-0.772
		c0.73-0.514,1.274-1.286,1.634-2.316h3.877c-0.215,1.006-0.587,1.903-1.113,2.693c-0.526,0.79-1.161,1.454-1.902,1.992
		c-0.742,0.538-1.574,0.946-2.496,1.22c-0.921,0.275-1.885,0.413-2.89,0.413c-1.46,0-2.753-0.24-3.877-0.718
		c-1.126-0.479-2.077-1.149-2.855-2.011c-0.777-0.861-1.364-1.891-1.759-3.087c-0.395-1.197-0.593-2.513-0.593-3.949
		c0-1.316,0.209-2.567,0.628-3.752c0.418-1.184,1.017-2.226,1.795-3.123c0.777-0.897,1.717-1.609,2.819-2.136
		c1.1-0.526,2.345-0.79,3.733-0.79c1.459,0,2.77,0.305,3.932,0.916c1.16,0.61,2.123,1.418,2.89,2.423
		c0.766,1.006,1.322,2.161,1.67,3.465c0.346,1.305,0.436,2.651,0.269,4.039H599.654z M609.203,811.131
		c-0.049-0.646-0.186-1.269-0.413-1.867c-0.228-0.598-0.539-1.119-0.934-1.562c-0.395-0.443-0.874-0.802-1.436-1.077
		c-0.563-0.274-1.191-0.413-1.885-0.413c-0.718,0-1.37,0.126-1.957,0.377c-0.587,0.251-1.089,0.599-1.508,1.041
		c-0.418,0.443-0.753,0.964-1.005,1.562c-0.251,0.598-0.389,1.245-0.413,1.939H609.203z"/>
	<path style="fill:#346473;" d="M657.922,821.076c0,2.8-0.785,4.888-2.352,6.265c-1.568,1.376-3.824,2.064-6.768,2.064
		c-0.933,0-1.873-0.095-2.818-0.287c-0.946-0.192-1.808-0.515-2.585-0.969c-0.778-0.455-1.43-1.054-1.957-1.795
		c-0.526-0.742-0.838-1.651-0.933-2.728h4.092c0.12,0.574,0.323,1.041,0.61,1.4c0.288,0.359,0.629,0.639,1.024,0.844
		c0.395,0.203,0.831,0.335,1.31,0.395c0.479,0.059,0.981,0.089,1.508,0.089c1.651,0,2.86-0.408,3.625-1.221
		c0.766-0.813,1.149-1.987,1.149-3.518v-2.836h-0.072c-0.574,1.029-1.358,1.831-2.352,2.405c-0.993,0.575-2.064,0.862-3.213,0.862
		c-1.485,0-2.747-0.257-3.788-0.772c-1.041-0.515-1.902-1.221-2.585-2.118c-0.682-0.898-1.179-1.933-1.49-3.106
		c-0.311-1.173-0.467-2.429-0.467-3.769c0-1.244,0.192-2.429,0.575-3.554c0.382-1.125,0.933-2.112,1.651-2.963
		c0.718-0.849,1.598-1.526,2.639-2.028c1.041-0.503,2.22-0.754,3.537-0.754c1.172,0,2.249,0.245,3.231,0.736
		c0.981,0.491,1.735,1.263,2.261,2.316h0.072v-2.549h4.093V821.076z M648.839,818.813c0.91,0,1.681-0.185,2.316-0.557
		c0.634-0.371,1.149-0.861,1.544-1.472c0.395-0.61,0.682-1.304,0.861-2.082c0.18-0.778,0.27-1.562,0.27-2.352
		c0-0.789-0.096-1.555-0.287-2.297c-0.192-0.742-0.485-1.4-0.88-1.975c-0.395-0.574-0.91-1.029-1.544-1.364
		c-0.634-0.335-1.394-0.502-2.28-0.502c-0.91,0-1.675,0.192-2.297,0.574c-0.623,0.383-1.126,0.88-1.508,1.49
		c-0.383,0.611-0.659,1.305-0.826,2.082c-0.167,0.778-0.251,1.55-0.251,2.316c0,0.767,0.095,1.515,0.287,2.245
		c0.192,0.73,0.485,1.382,0.88,1.957c0.395,0.574,0.898,1.041,1.508,1.4C647.241,818.634,647.978,818.813,648.839,818.813z"/>
	<path style="fill:#346473;" d="M677.739,822.548c-1.484,0-2.807-0.246-3.967-0.736c-1.162-0.49-2.143-1.167-2.944-2.029
		c-0.803-0.861-1.413-1.891-1.831-3.087c-0.419-1.197-0.629-2.513-0.629-3.949c0-1.412,0.209-2.716,0.629-3.913
		c0.418-1.196,1.029-2.225,1.831-3.087c0.802-0.862,1.783-1.537,2.944-2.029c1.16-0.49,2.482-0.736,3.967-0.736
		c1.484,0,2.806,0.245,3.967,0.736c1.161,0.491,2.142,1.167,2.944,2.029c0.802,0.862,1.412,1.891,1.831,3.087
		c0.418,1.198,0.628,2.501,0.628,3.913c0,1.436-0.209,2.753-0.628,3.949c-0.419,1.197-1.029,2.226-1.831,3.087
		c-0.803,0.862-1.783,1.538-2.944,2.029C680.545,822.302,679.222,822.548,677.739,822.548z M677.739,819.316
		c0.909,0,1.699-0.192,2.369-0.575c0.67-0.383,1.221-0.885,1.652-1.507c0.43-0.623,0.747-1.322,0.951-2.101
		c0.203-0.778,0.305-1.573,0.305-2.388c0-0.79-0.102-1.579-0.305-2.369c-0.203-0.79-0.521-1.49-0.951-2.101
		c-0.431-0.61-0.982-1.106-1.652-1.49c-0.67-0.383-1.46-0.574-2.369-0.574c-0.91,0-1.7,0.192-2.369,0.574
		c-0.67,0.383-1.221,0.88-1.652,1.49c-0.431,0.611-0.748,1.311-0.951,2.101c-0.203,0.79-0.305,1.579-0.305,2.369
		c0,0.814,0.101,1.61,0.305,2.388c0.203,0.778,0.521,1.478,0.951,2.101c0.431,0.623,0.982,1.125,1.652,1.507
		C676.039,819.125,676.829,819.316,677.739,819.316z"/>
	<path style="fill:#346473;" d="M700.894,813.823c0,0.718,0.101,1.413,0.305,2.082c0.203,0.67,0.508,1.257,0.915,1.759
		c0.407,0.503,0.921,0.904,1.544,1.203c0.622,0.3,1.364,0.449,2.226,0.449c1.197,0,2.159-0.257,2.89-0.772
		c0.73-0.514,1.275-1.286,1.634-2.316h3.877c-0.215,1.006-0.587,1.903-1.113,2.693c-0.526,0.79-1.161,1.454-1.902,1.992
		c-0.742,0.538-1.574,0.946-2.496,1.22c-0.921,0.275-1.885,0.413-2.89,0.413c-1.46,0-2.753-0.24-3.877-0.718
		c-1.126-0.479-2.077-1.149-2.855-2.011c-0.777-0.861-1.364-1.891-1.759-3.087c-0.395-1.197-0.592-2.513-0.592-3.949
		c0-1.316,0.209-2.567,0.628-3.752c0.418-1.184,1.017-2.226,1.795-3.123c0.777-0.897,1.717-1.609,2.819-2.136
		c1.101-0.526,2.345-0.79,3.733-0.79c1.46,0,2.77,0.305,3.932,0.916c1.16,0.61,2.123,1.418,2.89,2.423
		c0.766,1.006,1.322,2.161,1.669,3.465c0.346,1.305,0.436,2.651,0.269,4.039H700.894z M710.444,811.131
		c-0.048-0.646-0.186-1.269-0.413-1.867c-0.227-0.598-0.539-1.119-0.934-1.562s-0.874-0.802-1.436-1.077
		c-0.562-0.274-1.191-0.413-1.885-0.413c-0.718,0-1.37,0.126-1.956,0.377c-0.587,0.251-1.09,0.599-1.508,1.041
		c-0.418,0.443-0.753,0.964-1.005,1.562c-0.251,0.598-0.389,1.245-0.413,1.939H710.444z"/>
	<path style="fill:#346473;" d="M727.927,816.085c0.12,1.197,0.575,2.034,1.364,2.513c0.79,0.479,1.736,0.718,2.836,0.718
		c0.383,0,0.82-0.03,1.311-0.09c0.49-0.059,0.952-0.173,1.382-0.341c0.431-0.167,0.783-0.412,1.059-0.736
		c0.275-0.323,0.401-0.747,0.378-1.274c-0.024-0.526-0.216-0.957-0.575-1.293c-0.359-0.335-0.82-0.604-1.382-0.808
		c-0.563-0.203-1.203-0.377-1.921-0.521c-0.718-0.144-1.449-0.299-2.19-0.467c-0.766-0.166-1.502-0.371-2.208-0.61
		c-0.706-0.239-1.341-0.562-1.903-0.969c-0.563-0.407-1.012-0.927-1.347-1.562c-0.336-0.634-0.502-1.418-0.502-2.352
		c0-1.005,0.245-1.849,0.736-2.532c0.49-0.682,1.113-1.232,1.867-1.651c0.754-0.418,1.591-0.712,2.513-0.88
		c0.921-0.167,1.8-0.251,2.639-0.251c0.956,0,1.872,0.102,2.747,0.305c0.873,0.204,1.663,0.533,2.369,0.987
		c0.706,0.455,1.292,1.048,1.759,1.778c0.467,0.73,0.759,1.609,0.88,2.639h-4.272c-0.192-0.982-0.641-1.64-1.347-1.975
		c-0.706-0.335-1.514-0.502-2.423-0.502c-0.288,0-0.628,0.023-1.023,0.071c-0.395,0.049-0.766,0.138-1.113,0.27
		c-0.347,0.132-0.64,0.323-0.879,0.575c-0.239,0.251-0.359,0.58-0.359,0.987c0,0.503,0.173,0.91,0.521,1.221
		c0.346,0.311,0.802,0.569,1.364,0.772c0.562,0.203,1.203,0.378,1.921,0.521c0.718,0.144,1.46,0.3,2.226,0.467
		c0.741,0.167,1.472,0.372,2.19,0.61c0.718,0.239,1.358,0.562,1.921,0.969c0.562,0.408,1.017,0.922,1.364,1.544
		c0.347,0.623,0.521,1.388,0.521,2.298c0,1.1-0.251,2.034-0.754,2.8c-0.502,0.766-1.155,1.388-1.957,1.866
		c-0.802,0.479-1.693,0.826-2.675,1.041c-0.982,0.216-1.951,0.324-2.907,0.324c-1.173,0-2.256-0.132-3.25-0.395
		c-0.993-0.264-1.854-0.665-2.584-1.203c-0.731-0.539-1.306-1.208-1.724-2.011c-0.419-0.802-0.64-1.752-0.664-2.854H727.927z"/>
	<path style="fill:#346473;" d="M767.814,796.411h4.092v9.514h0.072c0.503-0.837,1.25-1.537,2.244-2.1
		c0.993-0.563,2.101-0.844,3.321-0.844c2.034,0,3.638,0.526,4.811,1.579c1.173,1.054,1.759,2.634,1.759,4.739v12.745h-4.093v-11.668
		c-0.048-1.46-0.358-2.519-0.933-3.178c-0.574-0.658-1.472-0.987-2.692-0.987c-0.695,0-1.317,0.126-1.867,0.377
		c-0.551,0.251-1.018,0.599-1.4,1.041c-0.383,0.443-0.682,0.964-0.898,1.562c-0.215,0.598-0.323,1.234-0.323,1.903v10.95h-4.092
		V796.411z"/>
	<path style="fill:#346473;" d="M798.796,813.823c0,0.718,0.101,1.413,0.305,2.082c0.203,0.67,0.508,1.257,0.915,1.759
		c0.407,0.503,0.922,0.904,1.544,1.203c0.622,0.3,1.364,0.449,2.226,0.449c1.197,0,2.159-0.257,2.89-0.772
		c0.73-0.514,1.275-1.286,1.634-2.316h3.877c-0.215,1.006-0.587,1.903-1.113,2.693c-0.526,0.79-1.161,1.454-1.902,1.992
		c-0.742,0.538-1.574,0.946-2.496,1.22c-0.921,0.275-1.885,0.413-2.89,0.413c-1.46,0-2.753-0.24-3.877-0.718
		c-1.126-0.479-2.077-1.149-2.855-2.011c-0.778-0.861-1.364-1.891-1.759-3.087c-0.395-1.197-0.593-2.513-0.593-3.949
		c0-1.316,0.209-2.567,0.629-3.752c0.418-1.184,1.017-2.226,1.795-3.123c0.777-0.897,1.717-1.609,2.819-2.136
		c1.1-0.526,2.345-0.79,3.733-0.79c1.46,0,2.77,0.305,3.932,0.916c1.16,0.61,2.123,1.418,2.89,2.423
		c0.766,1.006,1.322,2.161,1.669,3.465c0.347,1.305,0.436,2.651,0.269,4.039H798.796z M808.346,811.131
		c-0.049-0.646-0.186-1.269-0.413-1.867c-0.228-0.598-0.539-1.119-0.934-1.562c-0.395-0.443-0.874-0.802-1.436-1.077
		c-0.562-0.274-1.191-0.413-1.885-0.413c-0.718,0-1.37,0.126-1.957,0.377c-0.587,0.251-1.09,0.599-1.508,1.041
		c-0.419,0.443-0.753,0.964-1.005,1.562c-0.251,0.598-0.389,1.245-0.413,1.939H808.346z"/>
	<path style="fill:#346473;" d="M822.742,803.484h3.841v3.59h0.072c0.12-0.502,0.352-0.993,0.7-1.472
		c0.347-0.478,0.766-0.915,1.257-1.31c0.49-0.395,1.035-0.712,1.634-0.951c0.598-0.239,1.209-0.359,1.831-0.359
		c0.478,0,0.808,0.013,0.987,0.036c0.18,0.023,0.365,0.048,0.557,0.071v3.949c-0.287-0.048-0.581-0.09-0.88-0.125
		c-0.3-0.036-0.592-0.054-0.88-0.054c-0.695,0-1.346,0.138-1.957,0.412c-0.61,0.275-1.143,0.682-1.598,1.221
		c-0.454,0.538-0.813,1.203-1.077,1.993c-0.264,0.789-0.395,1.7-0.395,2.728v8.832h-4.092V803.484z"/>
	<path style="fill:#346473;" d="M845.108,813.823c0,0.718,0.101,1.413,0.305,2.082c0.203,0.67,0.508,1.257,0.915,1.759
		c0.407,0.503,0.921,0.904,1.544,1.203c0.622,0.3,1.364,0.449,2.226,0.449c1.197,0,2.159-0.257,2.89-0.772
		c0.73-0.514,1.275-1.286,1.634-2.316h3.877c-0.215,1.006-0.587,1.903-1.113,2.693c-0.526,0.79-1.161,1.454-1.902,1.992
		c-0.742,0.538-1.574,0.946-2.496,1.22c-0.922,0.275-1.885,0.413-2.89,0.413c-1.46,0-2.753-0.24-3.877-0.718
		c-1.126-0.479-2.077-1.149-2.855-2.011c-0.778-0.861-1.364-1.891-1.759-3.087c-0.395-1.197-0.592-2.513-0.592-3.949
		c0-1.316,0.209-2.567,0.628-3.752c0.419-1.184,1.017-2.226,1.795-3.123c0.778-0.897,1.717-1.609,2.819-2.136
		c1.101-0.526,2.345-0.79,3.733-0.79c1.46,0,2.77,0.305,3.932,0.916c1.16,0.61,2.123,1.418,2.89,2.423
		c0.766,1.006,1.322,2.161,1.669,3.465c0.346,1.305,0.436,2.651,0.269,4.039H845.108z M854.658,811.131
		c-0.048-0.646-0.186-1.269-0.413-1.867c-0.227-0.598-0.539-1.119-0.934-1.562c-0.395-0.443-0.874-0.802-1.436-1.077
		c-0.562-0.274-1.191-0.413-1.885-0.413c-0.718,0-1.37,0.126-1.956,0.377c-0.587,0.251-1.09,0.599-1.508,1.041
		c-0.418,0.443-0.753,0.964-1.005,1.562c-0.251,0.598-0.389,1.245-0.413,1.939H854.658z"/>
</g>
</svg>
