<svg width="33" height="26" viewBox="0 0 33 26" fill="none" xmlns="http://www.w3.org/2000/svg">
<g id="Group 26261">
<path id="Ellipse 650" d="M21.1997 24.46C27.551 24.46 32.6997 19.3112 32.6997 12.96C32.6997 6.60869 27.551 1.45996 21.1997 1.45996C14.8484 1.45996 9.69971 6.60869 9.69971 12.96C9.69971 19.3112 14.8484 24.46 21.1997 24.46Z" fill="#F7E2EF"/>
<g id="lowest-price">
<path id="Path 24800" d="M13.0999 14.6361C13.2942 14.6364 13.4805 14.7137 13.6179 14.8511C13.7553 14.9885 13.8326 15.1748 13.8329 15.3691H15.2989C15.2987 14.9144 15.1576 14.471 14.8951 14.0998C14.6326 13.7286 14.2615 13.4478 13.8329 13.2961V11.7041H12.3669V13.2961C11.8785 13.4697 11.467 13.8101 11.2051 14.2574C10.9431 14.7047 10.8476 15.2302 10.9352 15.7411C11.0229 16.2519 11.2881 16.7155 11.6841 17.0499C12.0801 17.3844 12.5815 17.5682 13.0999 17.5691C13.2449 17.5691 13.3866 17.6121 13.5071 17.6926C13.6277 17.7732 13.7216 17.8877 13.7771 18.0216C13.8326 18.1555 13.8471 18.3029 13.8188 18.4451C13.7905 18.5873 13.7207 18.7179 13.6182 18.8204C13.5157 18.9229 13.3851 18.9927 13.2429 19.021C13.1007 19.0493 12.9533 19.0348 12.8194 18.9793C12.6854 18.9238 12.571 18.8299 12.4904 18.7093C12.4099 18.5888 12.3669 18.4471 12.3669 18.3021H10.9009C10.9011 18.7568 11.0421 19.2002 11.3047 19.5714C11.5672 19.9426 11.9383 20.2234 12.3669 20.3751V21.9671H13.8329V20.3751C14.3213 20.2015 14.7328 19.8611 14.9947 19.4138C15.2566 18.9665 15.3522 18.441 15.2646 17.9301C15.1769 17.4193 14.9117 16.9557 14.5157 16.6213C14.1196 16.2868 13.6182 16.103 13.0999 16.1021C12.9055 16.1021 12.719 16.0249 12.5816 15.8874C12.4441 15.7499 12.3669 15.5635 12.3669 15.3691C12.3669 15.1747 12.4441 14.9883 12.5816 14.8508C12.719 14.7133 12.9055 14.6361 13.0999 14.6361Z" fill="#333333"/>
<path id="Path 24801" d="M3.88671 17.2659V9.50488H2.42071V17.2659L1.68771 16.5329L0.699707 17.5689L3.15371 20.0689L5.65371 17.5689L4.61971 16.5319L3.88671 17.2659Z" fill="#333333"/>
<path id="Path 24802" d="M24.5989 17.2659L23.8659 17.9989V9.50488H22.3999V17.9989L21.6669 17.2659L20.6299 18.3029L23.1299 20.8029L25.7199 18.3029L24.5989 17.2659Z" fill="#333333"/>
<path id="Path 24803" d="M14.0877 6.65918C15.1237 3.62018 15.2997 3.49318 15.2997 2.85918C15.2997 2.2757 15.0679 1.71612 14.6553 1.30354C14.2427 0.890965 13.6832 0.65918 13.0997 0.65918C12.5162 0.65918 11.9566 0.890965 11.544 1.30354C11.1315 1.71612 10.8997 2.2757 10.8997 2.85918C10.8997 3.50418 11.0997 3.69918 12.1117 6.65918C11.3413 6.88018 10.6638 7.34599 10.1817 7.98618H6.86768V25.6822H19.3307V7.99018H16.0167C15.5353 7.34873 14.8582 6.88151 14.0877 6.65918ZM13.0997 2.12118C13.294 2.12144 13.4803 2.19876 13.6177 2.33616C13.7551 2.47357 13.8324 2.65986 13.8327 2.85418C13.6634 3.61043 13.4178 4.34754 13.0997 5.05418C12.7816 4.34752 12.536 3.61041 12.3667 2.85418C12.3669 2.65986 12.4443 2.47357 12.5817 2.33616C12.7191 2.19876 12.9054 2.12144 13.0997 2.12118ZM17.8647 24.2122H8.33468V9.45918H10.9957C11.1546 9.02913 11.4414 8.6581 11.8176 8.39604C12.1938 8.13399 12.6412 7.9935 13.0997 7.9935C13.5581 7.9935 14.0056 8.13399 14.3818 8.39604C14.7579 8.6581 15.0448 9.02913 15.2037 9.45918H17.8647V24.2122Z" fill="#333333"/>
</g>
</g>
</svg>
