<svg xmlns="http://www.w3.org/2000/svg" width="21" height="23.333" viewBox="0 0 21 23.333">
  <g id="Outline" transform="translate(-5 -2)">
    <path id="Path_10151" data-name="Path 10151" d="M13.722,7.444A2.722,2.722,0,1,0,11,4.722,2.722,2.722,0,0,0,13.722,7.444Zm0-4.667a1.944,1.944,0,1,1-1.944,1.944,1.944,1.944,0,0,1,1.944-1.944Z" transform="translate(-3.667 0)" fill="#5f449b"/>
    <path id="Path_10152" data-name="Path 10152" d="M7.067,13.747l-.3.168A3.508,3.508,0,0,0,5,16.956V19.29a1.167,1.167,0,0,0,1.167,1.167h7.778a1.167,1.167,0,0,0,1.167-1.167V16.957a3.508,3.508,0,0,0-1.771-3.041l-.3-.168-.207.272a3.49,3.49,0,0,1-5.565,0Zm2.989,2.432a4.239,4.239,0,0,0,3.17-1.411,2.728,2.728,0,0,1,1.108,2.189V19.29a.389.389,0,0,1-.389.389H6.167a.389.389,0,0,1-.389-.389V16.957a2.728,2.728,0,0,1,1.108-2.189A4.239,4.239,0,0,0,10.056,16.179Z" transform="translate(0 -7.179)" fill="#5f449b"/>
    <path id="Path_10153" data-name="Path 10153" d="M30,41.556a2.725,2.725,0,0,0,2.722,2.722h5.833a2.725,2.725,0,0,0,2.722-2.722V35.722A2.725,2.725,0,0,0,38.556,33H32.722A2.725,2.725,0,0,0,30,35.722Zm10.5,0A1.947,1.947,0,0,1,38.556,43.5H32.722a1.947,1.947,0,0,1-1.944-1.944V36.889H40.5Zm-9.722-5.833a1.947,1.947,0,0,1,1.944-1.944h5.833A1.947,1.947,0,0,1,40.5,35.722v.389H30.778Z" transform="translate(-15.278 -18.944)" fill="#5f449b"/>
    <path id="Path_10154" data-name="Path 10154" d="M35.669,37.113a.389.389,0,1,0,0,.552.4.4,0,0,0,.082-.128.4.4,0,0,0-.082-.424Z" transform="translate(-18.337 -21.389)" fill="#5f449b"/>
    <path id="Path_10155" data-name="Path 10155" d="M39.311,37.009a.247.247,0,0,0-.07.023.3.3,0,0,0-.07.035.661.661,0,0,0-.058.047.394.394,0,0,0,0,.552l.058.047a.3.3,0,0,0,.07.035.247.247,0,0,0,.07.023.577.577,0,0,0,.078.008.389.389,0,0,0,.276-.665A.4.4,0,0,0,39.311,37.009Z" transform="translate(-20.778 -21.39)" fill="#5f449b"/>
    <path id="Path_10156" data-name="Path 10156" d="M43.241,37.032a.4.4,0,0,0-.128.082.394.394,0,0,0,0,.552.4.4,0,0,0,.128.082.388.388,0,1,0,0-.716Z" transform="translate(-23.222 -21.39)" fill="#5f449b"/>
    <path id="Path_10157" data-name="Path 10157" d="M36.587,17.172,38,18.389l1.217-1.413-.083-1.115-.9,1.043A7.4,7.4,0,0,0,31,11v.778a6.621,6.621,0,0,1,6.428,5.073l-.924-.8Z" transform="translate(-15.889 -5.5)" fill="#5f449b"/>
    <path id="Path_10158" data-name="Path 10158" d="M8.5,35.217,7.087,34,5.87,35.413l.083,1.115.9-1.043a7.4,7.4,0,0,0,7.233,5.9v-.778a6.621,6.621,0,0,1-6.428-5.073l.924.8Z" transform="translate(-0.532 -19.556)" fill="#5f449b"/>
  </g>
</svg>
