<svg xmlns="http://www.w3.org/2000/svg" width="21.93" height="19.714" viewBox="0 0 21.93 19.714">
  <path id="my-properties" d="M21.637,20.627h-2.2V7.1a.324.324,0,0,0-.343-.343H12.845V1.943A.324.324,0,0,0,12.5,1.6H2.954a.385.385,0,0,0-.412.343V20.627H.343a.343.343,0,0,0,0,.687H21.569a.324.324,0,0,0,.343-.343C21.981,20.833,21.843,20.627,21.637,20.627Zm-9.548,0H3.3V2.356h8.792Zm6.594,0H12.845V7.439h5.839Zm-4.053-9.479h2.2a.324.324,0,0,0,.343-.343v-2.2a.324.324,0,0,0-.343-.343h-2.2a.324.324,0,0,0-.343.343v2.2A.368.368,0,0,0,14.631,11.148Zm.412-2.2h1.442v1.442H15.043Zm-.412,5.839h2.2a.324.324,0,0,0,.343-.343v-2.2a.324.324,0,0,0-.343-.343h-2.2a.324.324,0,0,0-.343.343v2.2A.324.324,0,0,0,14.631,14.788Zm.412-2.2h1.442v1.442H15.043Zm-.412,5.839h2.2a.324.324,0,0,0,.343-.343v-2.2a.324.324,0,0,0-.343-.343h-2.2a.324.324,0,0,0-.343.343v2.2A.324.324,0,0,0,14.631,18.429Zm.412-2.2h1.442v1.442H15.043ZM8.449,11.148h2.2a.324.324,0,0,0,.343-.343v-2.2a.324.324,0,0,0-.343-.343h-2.2a.324.324,0,0,0-.343.343v2.2C8.037,10.942,8.243,11.148,8.449,11.148Zm.343-2.2h1.442v1.442H8.792S8.792,8.95,8.792,8.95ZM8.449,7.439h2.2A.324.324,0,0,0,10.99,7.1V4.9a.324.324,0,0,0-.343-.343h-2.2a.324.324,0,0,0-.343.343V7.1C8.037,7.3,8.243,7.439,8.449,7.439Zm.343-2.2h1.442V6.683H8.792S8.792,5.241,8.792,5.241Zm-.343,9.548h2.2a.324.324,0,0,0,.343-.343v-2.2a.324.324,0,0,0-.343-.343h-2.2a.324.324,0,0,0-.343.343v2.2C8.037,14.651,8.243,14.788,8.449,14.788Zm.343-2.2h1.442v1.442H8.792S8.792,12.59,8.792,12.59Zm-.343,5.839h2.2a.324.324,0,0,0,.343-.343v-2.2a.324.324,0,0,0-.343-.343h-2.2a.324.324,0,0,0-.343.343v2.2C8.037,18.292,8.243,18.429,8.449,18.429Zm.343-2.2h1.442v1.442H8.792S8.792,16.231,8.792,16.231ZM4.74,11.148h2.2a.324.324,0,0,0,.343-.343v-2.2a.324.324,0,0,0-.343-.343H4.74a.324.324,0,0,0-.343.343v2.2A.368.368,0,0,0,4.74,11.148Zm.412-2.2H6.594v1.442H5.152ZM4.74,7.439h2.2A.324.324,0,0,0,7.281,7.1V4.9a.324.324,0,0,0-.343-.343H4.74A.324.324,0,0,0,4.4,4.9V7.1A.324.324,0,0,0,4.74,7.439Zm.412-2.2H6.594V6.683H5.152ZM4.74,14.788h2.2a.324.324,0,0,0,.343-.343v-2.2a.324.324,0,0,0-.343-.343H4.74a.324.324,0,0,0-.343.343v2.2A.324.324,0,0,0,4.74,14.788Zm.412-2.2H6.594v1.442H5.152ZM4.74,18.429h2.2a.324.324,0,0,0,.343-.343v-2.2a.324.324,0,0,0-.343-.343H4.74a.324.324,0,0,0-.343.343v2.2A.324.324,0,0,0,4.74,18.429Zm.412-2.2H6.594v1.442H5.152Z" transform="translate(0 -1.6)" fill="#5f449b"/>
</svg>
