<?xml version="1.0" encoding="UTF-8"?>
<svg width="24px" height="17px" viewBox="0 0 24 17" version="1.1" xmlns="http://www.w3.org/2000/svg" xmlns:xlink="http://www.w3.org/1999/xlink">
    <!-- Generator: Sketch 61.2 (89653) - https://sketch.com -->
    <title>iconfinder_4634997_cards_credit_financial_money_icon</title>
    <desc>Created with Sketch.</desc>
    <g id="Page-1" stroke="none" stroke-width="1" fill="none" fill-rule="evenodd">
        <g id="Dotcom-Pay-Rent-(Landlord-detail)" transform="translate(-165.000000, -298.000000)" fill="#5E449B" fill-rule="nonzero">
            <g id="iconfinder_4634997_cards_credit_financial_money_icon" transform="translate(165.000000, 298.000000)">
                <path d="M19.82,-3.55271368e-14 C20.8875251,0.00550277975 21.7500142,0.87246071 21.75,1.94 L21.75,1.94 L21.75,2.09 L21.84,2.09 C22.9445695,2.09 23.84,2.9854305 23.84,4.09 L23.84,4.09 L23.84,14.89 C23.84,15.9945695 22.9445695,16.89 21.84,16.89 L21.84,16.89 L4.09,16.89 C2.9854305,16.89 2.09,15.9945695 2.09,14.89 L2.09,14.89 L2.09,14.8 L1.94,14.8 C1.42548001,14.8 0.932033419,14.5956077 0.568212844,14.2317872 C0.20439227,13.8679666 3.64153152e-13,13.37452 3.64153152e-13,12.86 L3.64153152e-13,12.86 L3.64153152e-13,1.94 C3.64153152e-13,0.868567585 0.868567585,-3.55271368e-14 1.94,-3.55271368e-14 L1.94,-3.55271368e-14 Z M21.85,3.09 L21.76,3.09 L21.76,12.86 C21.76,13.37452 21.5556077,13.8679666 21.1917872,14.2317872 C20.8279666,14.5956077 20.33452,14.8 19.82,14.8 L19.82,14.8 L3.09,14.8 L3.09,14.86 C3.09,15.4122847 3.53771525,15.86 4.09,15.86 L4.09,15.86 L21.84,15.86 C22.3922847,15.86 22.84,15.4122847 22.84,14.86 L22.84,14.86 L22.85,4.09 C22.85,3.53771525 22.4022847,3.09 21.85,3.09 L21.85,3.09 Z M20.76,6.54 L1,6.54 L1,12.86 C1,13.3791477 1.42085234,13.8 1.94,13.8 L1.94,13.8 L19.82,13.8 C20.3391477,13.8 20.76,13.3791477 20.76,12.86 L20.76,12.86 L20.76,6.54 Z M14.227612,9.13414258 C14.9598637,8.7412744 15.8658828,8.90073257 16.42,9.52 C16.9284654,8.97933645 17.7154705,8.80387557 18.4054459,9.07734961 C19.0954214,9.35082366 19.5485219,10.0178045 19.5485219,10.76 C19.5485219,11.5021955 19.0954214,12.1691763 18.4054459,12.4426504 C17.7154705,12.7161244 16.9284654,12.5406635 16.42,12 C16.0721692,12.3441936 15.5991962,12.5319386 15.11,12.52 C14.2791402,12.5344942 13.5463463,11.9783373 13.3367827,11.1742098 C13.1272191,10.3700822 13.4953603,9.52701076 14.227612,9.13414258 Z M17.72,9.91 C17.2726494,9.91 16.91,10.2726494 16.91,10.72 C16.91,11.1673506 17.2726494,11.53 17.72,11.53 C18.1673506,11.53 18.53,11.1673506 18.53,10.72 C18.53,10.2726494 18.1673506,9.91 17.72,9.91 Z M15.11,9.91 C14.6626494,9.91 14.3,10.2726494 14.3,10.72 C14.3,11.1673506 14.6626494,11.53 15.11,11.53 C15.5573506,11.53 15.92,11.1673506 15.92,10.72 C15.92,10.2726494 15.5573506,9.91 15.11,9.91 Z M20.76,3.48 L1,3.48 L1,5.54 L20.76,5.54 L20.76,3.48 Z M19.82,1 L1.94,1 C1.42085234,1 1,1.42085234 1,1.94 L1,1.94 L1,2.48 L20.76,2.48 L20.76,1.94 C20.76,1.42085234 20.3391477,1 19.82,1 L19.82,1 Z" id="Combined-Shape"></path>
            </g>
        </g>
    </g>
</svg>