<svg xmlns="http://www.w3.org/2000/svg" width="19.54" height="19.535" viewBox="0 0 19.54 19.535">
  <g id="contract_2_" data-name="contract (2)" transform="translate(0 -0.039)">
    <path id="Path_8402" data-name="Path 8402" d="M203.762,96.743a.977.977,0,0,0-1.79-.234l-.163.284a.326.326,0,0,0-.443.117l-.827,1.41-.284-.163a.326.326,0,0,0-.326.564l.283.163-2.767,4.8-.684,1.827-.326.607a.977.977,0,0,0,.052,1.055l-.733.9-.205-.514a.651.651,0,0,0-1.163-.091l-.117.2-.111-1.3a.651.651,0,0,0-1.267-.153l-.8,2.4a.325.325,0,0,0,.205.41.282.282,0,0,0,.1.026.326.326,0,0,0,.31-.221l.8-2.4.114,1.322a.651.651,0,0,0,1.208.28l.121-.2.2.512a.651.651,0,0,0,1.113.166l.759-.961a1,1,0,0,0,.26.033.977.977,0,0,0,.85-.482l.326-.544,1.241-1.508,2.8-4.855.284.163a.326.326,0,0,1,.121.447l-1.3,2.254a.323.323,0,1,0,.551.339l1.3-2.254a.976.976,0,0,0-.358-1.335l-.284-.163.814-1.41a.326.326,0,0,0-.117-.443l.163-.284a.976.976,0,0,0,.1-.757Zm-1.228.091a.325.325,0,0,1,.2-.153.342.342,0,0,1,.247.033.326.326,0,0,1,.153.2.342.342,0,0,1-.033.247l-.163.284-.567-.326Zm-4.437,9.091-.163-.095-.482-.28.462-1.237,1.026.592Zm-.977.941a.325.325,0,0,1-.1-.427l.163-.284.566.326-.163.28a.325.325,0,0,1-.469.1Zm2.191-2.494-1.127-.651,2.6-4.513,1.127.651Zm2.93-5.075-1.127-.651.651-1.127,1.127.651Zm0,0" transform="translate(-184.259 -92.074)" fill="#5f449b"/>
    <path id="Path_8403" data-name="Path 8403" d="M69.71,356.674l-1.152,1.15-.694-.694a.326.326,0,1,0-.46.462l.694.694a.656.656,0,0,0,.922,0l1.15-1.152a.326.326,0,0,0-.46-.46Zm0,0" transform="translate(-64.572 -342.046)" fill="#5f449b"/>
    <path id="Path_8404" data-name="Path 8404" d="M32,314.808a2.767,2.767,0,0,0,5.535,0,.326.326,0,0,0-.651,0,2.116,2.116,0,1,1-.846-1.693.326.326,0,0,0,.391-.52A2.767,2.767,0,0,0,32,314.808Zm0,0" transform="translate(-30.698 -299.304)" fill="#5f449b"/>
    <path id="Path_8405" data-name="Path 8405" d="M80.791,48.69a.326.326,0,1,0,0-.651H72.326a.326.326,0,0,0-.326.326v1.3a.325.325,0,0,0,.326.326h8.465a.326.326,0,1,0,0-.651h-8.14v-.65Zm0,0" transform="translate(-69.07 -46.047)" fill="#5f449b"/>
    <path id="Path_8406" data-name="Path 8406" d="M96.323,112.039a.326.326,0,1,0,0,.651h6.512a.326.326,0,0,0,0-.651Zm0,0" transform="translate(-92.091 -107.442)" fill="#5f449b"/>
    <path id="Path_8407" data-name="Path 8407" d="M135.486,168.039h-7.163a.326.326,0,1,0,0,.651h7.163a.326.326,0,1,0,0-.651Zm0,0" transform="translate(-122.787 -161.163)" fill="#5f449b"/>
    <path id="Path_8408" data-name="Path 8408" d="M63.161,216.365a.326.326,0,0,0-.326-.326H56.323a.326.326,0,1,0,0,.651h6.512a.325.325,0,0,0,.325-.325Zm0,0" transform="translate(-53.718 -207.209)" fill="#5f449b"/>
    <path id="Path_8409" data-name="Path 8409" d="M250.6,216.039h-2.279a.326.326,0,1,0,0,.651H250.6a.326.326,0,0,0,0-.651Zm0,0" transform="translate(-237.903 -207.209)" fill="#5f449b"/>
    <path id="Path_8410" data-name="Path 8410" d="M59.584,256.69a.326.326,0,0,0,0-.651H56.329a.326.326,0,0,0,0,.651Zm0,0" transform="translate(-53.723 -245.581)" fill="#5f449b"/>
    <path id="Path_8411" data-name="Path 8411" d="M168.328,256.69H170.6a.326.326,0,0,0,0-.651h-2.279a.326.326,0,0,0,0,.651Zm0,0" transform="translate(-161.165 -245.581)" fill="#5f449b"/>
    <path id="Path_8412" data-name="Path 8412" d="M14.652,15.017a.326.326,0,0,0-.326.326V18.6a.325.325,0,0,1-.326.326H.977A.325.325,0,0,1,.651,18.6V1.016A.326.326,0,0,1,.977.69H14a.326.326,0,0,1,.326.326V7.13a.326.326,0,1,0,.651,0V1.016A.977.977,0,0,0,14,.039H.977A.977.977,0,0,0,0,1.016V18.6a.977.977,0,0,0,.977.977H14a.977.977,0,0,0,.977-.977V15.342a.326.326,0,0,0-.325-.325Zm0,0" transform="translate(0)" fill="#5f449b"/>
  </g>
</svg>
