<svg xmlns="http://www.w3.org/2000/svg" width="21" height="21" viewBox="0 0 21 21">
  <g id="office" transform="translate(-8 -8)">
    <path id="Path_10103" data-name="Path 10103" d="M28.661,28.323H27.306v-2.4A2.3,2.3,0,0,0,29,23.581a2.224,2.224,0,0,0-2.032-2.371,2.224,2.224,0,0,0-2.032,2.371,2.3,2.3,0,0,0,1.694,2.338v1.094l-.489-.326a.339.339,0,0,0-.376.564l.865.577v.5H24.6V9.694a.339.339,0,0,0-.339-.339H21.887V8.339A.339.339,0,0,0,21.548,8h-6.1a.339.339,0,0,0-.339.339V9.355H12.742a.339.339,0,0,0-.339.339V28.323H10.371v-2.4a2.3,2.3,0,0,0,1.694-2.338,2.224,2.224,0,0,0-2.032-2.371A2.224,2.224,0,0,0,8,23.581a2.3,2.3,0,0,0,1.694,2.338v1.094L9.2,26.686a.339.339,0,1,0-.376.564l.865.577v.5H8.339a.339.339,0,0,0,0,.677H28.661a.339.339,0,0,0,0-.677ZM10.032,23.242a.339.339,0,0,0-.339.339v1.64a1.672,1.672,0,0,1-1.016-1.64,1.554,1.554,0,0,1,1.355-1.694,1.554,1.554,0,0,1,1.355,1.694,1.672,1.672,0,0,1-1.016,1.64v-1.64A.339.339,0,0,0,10.032,23.242ZM15.79,8.677H21.21v.677H15.79Zm2.371,19.645h-.339v-2.71h.339Zm1.016,0h-.339v-2.71h.339Zm4.742,0H19.855V25.274a.339.339,0,0,0-.339-.339H17.484a.339.339,0,0,0-.339.339v3.048H13.081V12.065H23.919Zm0-16.935H13.081V10.032H23.919Zm3.048,11.855a.339.339,0,0,0-.339.339v1.64a1.672,1.672,0,0,1-1.016-1.64,1.554,1.554,0,0,1,1.355-1.694,1.554,1.554,0,0,1,1.355,1.694,1.672,1.672,0,0,1-1.016,1.64v-1.64A.339.339,0,0,0,26.968,23.242Z" transform="translate(0 0)" fill="#5f449b"/>
    <path id="Path_10104" data-name="Path 10104" d="M226.371,328h-2.032a.339.339,0,0,0-.339.339v2.032a.339.339,0,0,0,.339.339h2.032a.339.339,0,0,0,.339-.339v-2.032A.339.339,0,0,0,226.371,328Zm-.339,2.032h-1.355v-1.355h1.355Z" transform="translate(-206.855 -306.452)" fill="#5f449b"/>
    <path id="Path_10105" data-name="Path 10105" d="M146.371,328h-2.032a.339.339,0,0,0-.339.339v2.032a.339.339,0,0,0,.339.339h2.032a.339.339,0,0,0,.339-.339v-2.032A.339.339,0,0,0,146.371,328Zm-.339,2.032h-1.355v-1.355h1.355Z" transform="translate(-130.242 -306.452)" fill="#5f449b"/>
    <path id="Path_10106" data-name="Path 10106" d="M306.371,328h-2.032a.339.339,0,0,0-.339.339v2.032a.339.339,0,0,0,.339.339h2.032a.339.339,0,0,0,.339-.339v-2.032A.339.339,0,0,0,306.371,328Zm-.339,2.032h-1.355v-1.355h1.355Z" transform="translate(-283.468 -306.452)" fill="#5f449b"/>
    <path id="Path_10107" data-name="Path 10107" d="M146.371,408h-2.032a.339.339,0,0,0-.339.339v2.032a.339.339,0,0,0,.339.339h2.032a.339.339,0,0,0,.339-.339v-2.032A.339.339,0,0,0,146.371,408Zm-.339,2.032h-1.355v-1.355h1.355Z" transform="translate(-130.242 -383.065)" fill="#5f449b"/>
    <path id="Path_10108" data-name="Path 10108" d="M306.371,408h-2.032a.339.339,0,0,0-.339.339v2.032a.339.339,0,0,0,.339.339h2.032a.339.339,0,0,0,.339-.339v-2.032A.339.339,0,0,0,306.371,408Zm-.339,2.032h-1.355v-1.355h1.355Z" transform="translate(-283.468 -383.065)" fill="#5f449b"/>
    <path id="Path_10109" data-name="Path 10109" d="M226.371,256h-2.032a.339.339,0,0,0-.339.339v2.032a.339.339,0,0,0,.339.339h2.032a.339.339,0,0,0,.339-.339v-2.032A.339.339,0,0,0,226.371,256Zm-.339,2.032h-1.355v-1.355h1.355Z" transform="translate(-206.855 -237.5)" fill="#5f449b"/>
    <path id="Path_10110" data-name="Path 10110" d="M146.371,256h-2.032a.339.339,0,0,0-.339.339v2.032a.339.339,0,0,0,.339.339h2.032a.339.339,0,0,0,.339-.339v-2.032A.339.339,0,0,0,146.371,256Zm-.339,2.032h-1.355v-1.355h1.355Z" transform="translate(-130.242 -237.5)" fill="#5f449b"/>
    <path id="Path_10111" data-name="Path 10111" d="M306.371,256h-2.032a.339.339,0,0,0-.339.339v2.032a.339.339,0,0,0,.339.339h2.032a.339.339,0,0,0,.339-.339v-2.032A.339.339,0,0,0,306.371,256Zm-.339,2.032h-1.355v-1.355h1.355Z" transform="translate(-283.468 -237.5)" fill="#5f449b"/>
    <path id="Path_10112" data-name="Path 10112" d="M226.371,184h-2.032a.339.339,0,0,0-.339.339v2.032a.339.339,0,0,0,.339.339h2.032a.339.339,0,0,0,.339-.339v-2.032A.339.339,0,0,0,226.371,184Zm-.339,2.032h-1.355v-1.355h1.355Z" transform="translate(-206.855 -168.548)" fill="#5f449b"/>
    <path id="Path_10113" data-name="Path 10113" d="M146.371,184h-2.032a.339.339,0,0,0-.339.339v2.032a.339.339,0,0,0,.339.339h2.032a.339.339,0,0,0,.339-.339v-2.032A.339.339,0,0,0,146.371,184Zm-.339,2.032h-1.355v-1.355h1.355Z" transform="translate(-130.242 -168.548)" fill="#5f449b"/>
    <path id="Path_10114" data-name="Path 10114" d="M306.371,184h-2.032a.339.339,0,0,0-.339.339v2.032a.339.339,0,0,0,.339.339h2.032a.339.339,0,0,0,.339-.339v-2.032A.339.339,0,0,0,306.371,184Zm-.339,2.032h-1.355v-1.355h1.355Z" transform="translate(-283.468 -168.548)" fill="#5f449b"/>
    <path id="Path_10115" data-name="Path 10115" d="M226.371,112h-2.032a.339.339,0,0,0-.339.339v2.032a.339.339,0,0,0,.339.339h2.032a.339.339,0,0,0,.339-.339v-2.032A.339.339,0,0,0,226.371,112Zm-.339,2.032h-1.355v-1.355h1.355Z" transform="translate(-206.855 -99.597)" fill="#5f449b"/>
    <path id="Path_10116" data-name="Path 10116" d="M146.371,112h-2.032a.339.339,0,0,0-.339.339v2.032a.339.339,0,0,0,.339.339h2.032a.339.339,0,0,0,.339-.339v-2.032A.339.339,0,0,0,146.371,112Zm-.339,2.032h-1.355v-1.355h1.355Z" transform="translate(-130.242 -99.597)" fill="#5f449b"/>
    <path id="Path_10117" data-name="Path 10117" d="M306.371,112h-2.032a.339.339,0,0,0-.339.339v2.032a.339.339,0,0,0,.339.339h2.032a.339.339,0,0,0,.339-.339v-2.032A.339.339,0,0,0,306.371,112Zm-.339,2.032h-1.355v-1.355h1.355Z" transform="translate(-283.468 -99.597)" fill="#5f449b"/>
  </g>
</svg>
